<svg width="170" height="42" viewBox="0 0 139 34" fill="none" xmlns="http://www.w3.org/2000/svg">
<g clip-path="url(#clip0_3_107)">
<path d="M43.414 13.812L39.85 26H36.528L34.306 17.486L32.084 26H28.74L25.154 13.812H28.278L30.434 23.096L32.766 13.812H36.022L38.31 23.074L40.466 13.812H43.414ZM56.4105 19.642C56.4105 20.082 56.3812 20.478 56.3225 20.83H47.4125C47.4858 21.71 47.7938 22.3993 48.3365 22.898C48.8792 23.3967 49.5465 23.646 50.3385 23.646C51.4825 23.646 52.2965 23.1547 52.7805 22.172H56.1025C55.7505 23.3453 55.0758 24.3133 54.0785 25.076C53.0812 25.824 51.8565 26.198 50.4045 26.198C49.2312 26.198 48.1752 25.9413 47.2365 25.428C46.3125 24.9 45.5865 24.1593 45.0585 23.206C44.5452 22.2527 44.2885 21.1527 44.2885 19.906C44.2885 18.6447 44.5452 17.5373 45.0585 16.584C45.5718 15.6307 46.2905 14.8973 47.2145 14.384C48.1385 13.8707 49.2018 13.614 50.4045 13.614C51.5632 13.614 52.5972 13.8633 53.5065 14.362C54.4305 14.8607 55.1418 15.572 55.6405 16.496C56.1538 17.4053 56.4105 18.454 56.4105 19.642ZM53.2205 18.762C53.2058 17.97 52.9198 17.3393 52.3625 16.87C51.8052 16.386 51.1232 16.144 50.3165 16.144C49.5538 16.144 48.9085 16.3787 48.3805 16.848C47.8672 17.3027 47.5518 17.9407 47.4345 18.762H53.2205ZM61.7386 15.594C62.1346 15.0073 62.6773 14.5307 63.3666 14.164C64.0706 13.7973 64.87 13.614 65.7646 13.614C66.806 13.614 67.7446 13.8707 68.5806 14.384C69.4313 14.8973 70.0986 15.6307 70.5826 16.584C71.0813 17.5227 71.3306 18.6153 71.3306 19.862C71.3306 21.1087 71.0813 22.216 70.5826 23.184C70.0986 24.1373 69.4313 24.878 68.5806 25.406C67.7446 25.934 66.806 26.198 65.7646 26.198C64.8553 26.198 64.056 26.022 63.3666 25.67C62.692 25.3033 62.1493 24.834 61.7386 24.262V26H58.6586V9.72H61.7386V15.594ZM68.1846 19.862C68.1846 19.1287 68.0306 18.498 67.7226 17.97C67.4293 17.4273 67.0333 17.0167 66.5346 16.738C66.0506 16.4593 65.5226 16.32 64.9506 16.32C64.3933 16.32 63.8653 16.4667 63.3666 16.76C62.8826 17.0387 62.4866 17.4493 62.1786 17.992C61.8853 18.5347 61.7386 19.1727 61.7386 19.906C61.7386 20.6393 61.8853 21.2773 62.1786 21.82C62.4866 22.3627 62.8826 22.7807 63.3666 23.074C63.8653 23.3527 64.3933 23.492 64.9506 23.492C65.5226 23.492 66.0506 23.3453 66.5346 23.052C67.0333 22.7587 67.4293 22.3407 67.7226 21.798C68.0306 21.2553 68.1846 20.61 68.1846 19.862Z" fill="#5D94E7"/>
<path d="M88.7048 13.636C90.2008 13.636 91.4034 14.098 92.3128 15.022C93.2368 15.9313 93.6988 17.2073 93.6988 18.85V26H90.6188V19.268C90.6188 18.3147 90.3768 17.5887 89.8928 17.09C89.4088 16.5767 88.7488 16.32 87.9128 16.32C87.0768 16.32 86.4094 16.5767 85.9108 17.09C85.4268 17.5887 85.1848 18.3147 85.1848 19.268V26H82.1048V19.268C82.1048 18.3147 81.8628 17.5887 81.3788 17.09C80.8948 16.5767 80.2348 16.32 79.3988 16.32C78.5481 16.32 77.8734 16.5767 77.3748 17.09C76.8908 17.5887 76.6488 18.3147 76.6488 19.268V26H73.5688V13.812H76.6488V15.286C77.0448 14.7727 77.5508 14.3693 78.1668 14.076C78.7974 13.7827 79.4868 13.636 80.2348 13.636C81.1881 13.636 82.0388 13.8413 82.7868 14.252C83.5348 14.648 84.1141 15.22 84.5248 15.968C84.9208 15.264 85.4928 14.6993 86.2408 14.274C87.0034 13.8487 87.8248 13.636 88.7048 13.636ZM107.952 19.642C107.952 20.082 107.922 20.478 107.864 20.83H98.9535C99.0268 21.71 99.3348 22.3993 99.8775 22.898C100.42 23.3967 101.088 23.646 101.88 23.646C103.024 23.646 103.838 23.1547 104.322 22.172H107.644C107.292 23.3453 106.617 24.3133 105.62 25.076C104.622 25.824 103.398 26.198 101.946 26.198C100.772 26.198 99.7162 25.9413 98.7775 25.428C97.8535 24.9 97.1275 24.1593 96.5995 23.206C96.0862 22.2527 95.8295 21.1527 95.8295 19.906C95.8295 18.6447 96.0862 17.5373 96.5995 16.584C97.1128 15.6307 97.8315 14.8973 98.7555 14.384C99.6795 13.8707 100.743 13.614 101.946 13.614C103.104 13.614 104.138 13.8633 105.048 14.362C105.972 14.8607 106.683 15.572 107.182 16.496C107.695 17.4053 107.952 18.454 107.952 19.642ZM104.762 18.762C104.747 17.97 104.461 17.3393 103.904 16.87C103.346 16.386 102.664 16.144 101.858 16.144C101.095 16.144 100.45 16.3787 99.9215 16.848C99.4082 17.3027 99.0928 17.9407 98.9755 18.762H104.762ZM109.408 19.862C109.408 18.63 109.65 17.5373 110.134 16.584C110.632 15.6307 111.307 14.8973 112.158 14.384C113.008 13.8707 113.954 13.614 114.996 13.614C115.788 13.614 116.543 13.79 117.262 14.142C117.98 14.4793 118.552 14.934 118.978 15.506V9.72H122.102V26H118.978V24.196C118.596 24.7973 118.061 25.2813 117.372 25.648C116.682 26.0147 115.883 26.198 114.974 26.198C113.947 26.198 113.008 25.934 112.158 25.406C111.307 24.878 110.632 24.1373 110.134 23.184C109.65 22.216 109.408 21.1087 109.408 19.862ZM119 19.906C119 19.158 118.853 18.52 118.56 17.992C118.266 17.4493 117.87 17.0387 117.372 16.76C116.873 16.4667 116.338 16.32 115.766 16.32C115.194 16.32 114.666 16.4593 114.182 16.738C113.698 17.0167 113.302 17.4273 112.994 17.97C112.7 18.498 112.554 19.1287 112.554 19.862C112.554 20.5953 112.7 21.2407 112.994 21.798C113.302 22.3407 113.698 22.7587 114.182 23.052C114.68 23.3453 115.208 23.492 115.766 23.492C116.338 23.492 116.873 23.3527 117.372 23.074C117.87 22.7807 118.266 22.37 118.56 21.842C118.853 21.2993 119 20.654 119 19.906ZM129.774 26.198C128.776 26.198 127.882 26.022 127.09 25.67C126.298 25.3033 125.667 24.812 125.198 24.196C124.743 23.58 124.494 22.898 124.45 22.15H127.552C127.61 22.6193 127.838 23.008 128.234 23.316C128.644 23.624 129.15 23.778 129.752 23.778C130.338 23.778 130.793 23.6607 131.116 23.426C131.453 23.1913 131.622 22.8907 131.622 22.524C131.622 22.128 131.416 21.8347 131.006 21.644C130.61 21.4387 129.972 21.2187 129.092 20.984C128.182 20.764 127.434 20.5367 126.848 20.302C126.276 20.0673 125.777 19.708 125.352 19.224C124.941 18.74 124.736 18.0873 124.736 17.266C124.736 16.5913 124.926 15.9753 125.308 15.418C125.704 14.8607 126.261 14.4207 126.98 14.098C127.713 13.7753 128.571 13.614 129.554 13.614C131.006 13.614 132.164 13.9807 133.03 14.714C133.895 15.4327 134.372 16.408 134.46 17.64H131.512C131.468 17.156 131.262 16.7747 130.896 16.496C130.544 16.2027 130.067 16.056 129.466 16.056C128.908 16.056 128.476 16.1587 128.168 16.364C127.874 16.5693 127.728 16.8553 127.728 17.222C127.728 17.6327 127.933 17.948 128.344 18.168C128.754 18.3733 129.392 18.586 130.258 18.806C131.138 19.026 131.864 19.2533 132.436 19.488C133.008 19.7227 133.499 20.0893 133.91 20.588C134.335 21.072 134.555 21.7173 134.57 22.524C134.57 23.228 134.372 23.8587 133.976 24.416C133.594 24.9733 133.037 25.4133 132.304 25.736C131.585 26.044 130.742 26.198 129.774 26.198Z" fill="#31D490"/>
<path d="M9 16H22V23.5C22 27.0899 19.0899 30 15.5 30V30C11.9101 30 9 27.0899 9 23.5V16Z" fill="#5D94E7"/>
<path d="M22 16L9 16L9 8.5C9 4.91015 11.9101 2 15.5 2V2C19.0899 2 22 4.91015 22 8.5V16Z" fill="#5D94E7"/>
<path d="M20 14L11 14V8.5C11 6.01472 13.0147 4 15.5 4V4C17.9853 4 20 6.01472 20 8.5V14Z" fill="#5D94E7"/>
<path d="M20.5 16L10.7451 16C10.6097 16 10.5 15.8903 10.5 15.7549L10.5 8.5C10.5 5.73858 12.7386 3.5 15.5 3.5V3.5C18.2614 3.5 20.5 5.73858 20.5 8.5V16Z" fill="white"/>
<rect x="2.8" y="27.6782" width="4.35652" height="13.4" rx="2.17826" transform="rotate(-90 2.8 27.6782)" fill="#31D490" stroke="#31D490" stroke-width="0.4"/>
<path d="M7.32172 20.9783L7.32172 30.0217C7.32172 31.2248 8.29696 32.2 9.49998 32.2C10.703 32.2 11.6782 31.2248 11.6782 30.0217L11.6782 20.9783C11.6782 19.7752 10.703 18.8 9.49998 18.8C8.29696 18.8 7.32172 19.7752 7.32172 20.9783Z" fill="#31D490" stroke="#31D490" stroke-width="0.4"/>
<rect x="10.8" y="31.1333" width="2.6" height="11.2667" rx="1.3" transform="rotate(-180 10.8 31.1333)" fill="white"/>
<rect x="3.86667" y="26.8" width="2.6" height="11.2667" rx="1.3" transform="rotate(-90 3.86667 26.8)" fill="white"/>
<path d="M12.5 12L12.5 9.5C12.5 9.5 12.5 7.49999 13.5 6.5C14.5 5.5 15.5 5.49999 15.5 5.49999" stroke="#5D94E7" stroke-width="1.5" stroke-linecap="round"/>
</g>
<defs>
<clipPath id="clip0_3_107">
<rect width="139" height="34" fill="white"/>
</clipPath>
</defs>
</svg>
