<svg width="24" height="24" viewBox="0 0 24 24" fill="none" xmlns="http://www.w3.org/2000/svg">
<path d="M5 21C4.45 21 3.979 20.8043 3.587 20.413C3.19567 20.021 3 19.55 3 19V5C3 4.45 3.19567 3.979 3.587 3.587C3.979 3.19567 4.45 3 5 3H19C19.55 3 20.021 3.19567 20.413 3.587C20.8043 3.979 21 4.45 21 5V11.7C20.6833 11.55 20.3583 11.4207 20.025 11.312C19.6917 11.204 19.35 11.125 19 11.075V5H5V19H11.05C11.1 19.3667 11.1793 19.7167 11.288 20.05C11.396 20.3833 11.525 20.7 11.675 21H5ZM5 18V19V5V11.075V11V18ZM7 17H11.075C11.125 16.65 11.204 16.3083 11.312 15.975C11.4207 15.6417 11.5417 15.3167 11.675 15H7V17ZM7 13H13.1C13.6333 12.5 14.229 12.0833 14.887 11.75C15.5457 11.4167 16.25 11.1917 17 11.075V11H7V13ZM7 9H17V7H7V9ZM18 23C16.6167 23 15.4377 22.5127 14.463 21.538C13.4877 20.5627 13 19.3833 13 18C13 16.6167 13.4877 15.4373 14.463 14.462C15.4377 13.4873 16.6167 13 18 13C19.3833 13 20.5627 13.4873 21.538 14.462C22.5127 15.4373 23 16.6167 23 18C23 19.3833 22.5127 20.5627 21.538 21.538C20.5627 22.5127 19.3833 23 18 23ZM17.5 21H18.5V18.5H21V17.5H18.5V15H17.5V17.5H15V18.5H17.5V21Z" fill="#111111"/>
</svg>
