<svg width="26" height="25" viewBox="0 0 26 25" fill="none" xmlns="http://www.w3.org/2000/svg">
<path d="M12.7453 17.7441C13.0371 17.7441 13.2819 17.6452 13.4796 17.4475C13.6766 17.2504 13.7751 17.006 13.7751 16.7142V13.6248H16.8904C17.1822 13.6248 17.4225 13.5259 17.6113 13.3282C17.8001 13.1311 17.8945 12.8867 17.8945 12.5949C17.8945 12.3031 17.7956 12.0584 17.5979 11.8607C17.4008 11.6636 17.1564 11.5651 16.8646 11.5651H13.7751V8.44986C13.7751 8.15808 13.6766 7.91778 13.4796 7.72898C13.2819 7.54018 13.0371 7.44578 12.7453 7.44578C12.4535 7.44578 12.2091 7.5443 12.0121 7.74134C11.8144 7.93907 11.7155 8.18382 11.7155 8.47561V11.5651H8.60025C8.30847 11.5651 8.06817 11.6636 7.87937 11.8607C7.69057 12.0584 7.59617 12.3031 7.59617 12.5949C7.59617 12.8867 7.69469 13.1311 7.89173 13.3282C8.08946 13.5259 8.33421 13.6248 8.626 13.6248H11.7155V16.74C11.7155 17.0318 11.8144 17.2721 12.0121 17.4609C12.2091 17.6497 12.4535 17.7441 12.7453 17.7441ZM12.7453 22.8932C11.3207 22.8932 9.98194 22.6227 8.72898 22.0817C7.47602 21.5414 6.38612 20.8078 5.45927 19.881C4.53243 18.9541 3.79884 17.8642 3.25853 16.6113C2.71752 15.3583 2.44702 14.0195 2.44702 12.5949C2.44702 11.1703 2.71752 9.83155 3.25853 8.57859C3.79884 7.32563 4.53243 6.23573 5.45927 5.30888C6.38612 4.38204 7.47602 3.64811 8.72898 3.10711C9.98194 2.56679 11.3207 2.29663 12.7453 2.29663C14.1699 2.29663 15.5087 2.56679 16.7617 3.10711C18.0146 3.64811 19.1045 4.38204 20.0314 5.30888C20.9582 6.23573 21.6918 7.32563 22.2321 8.57859C22.7731 9.83155 23.0436 11.1703 23.0436 12.5949C23.0436 14.0195 22.7731 15.3583 22.2321 16.6113C21.6918 17.8642 20.9582 18.9541 20.0314 19.881C19.1045 20.8078 18.0146 21.5414 16.7617 22.0817C15.5087 22.6227 14.1699 22.8932 12.7453 22.8932Z" fill="#31D490"/>
</svg>
