<svg width="20" height="18" viewBox="0 0 20 18" fill="none" xmlns="http://www.w3.org/2000/svg">
<path d="M14.4618 2.33823L14.6103 2.5H14.83H18C18.8239 2.5 19.5 3.17614 19.5 4V16C19.5 16.8239 18.8239 17.5 18 17.5H2C1.17614 17.5 0.5 16.8239 0.5 16V4C0.5 3.17614 1.17614 2.5 2 2.5H5.17H5.39085L5.5396 2.33675L6.76808 0.98841C7.05504 0.679621 7.46227 0.5 7.88 0.5H12.1198C12.327 0.500146 12.5319 0.543494 12.7213 0.627276C12.9109 0.711076 13.0808 0.833485 13.2203 0.986686L13.2218 0.988233L14.4618 2.33823ZM4.5 10C4.5 13.0361 6.96386 15.5 10 15.5C13.0361 15.5 15.5 13.0361 15.5 10C15.5 6.96386 13.0361 4.5 10 4.5C6.96386 4.5 4.5 6.96386 4.5 10Z" fill="black" stroke="black"/>
</svg>
