<svg width="100" height="100" viewBox="0 0 100 100" fill="none" xmlns="http://www.w3.org/2000/svg">
<path d="M50 9.375C42.9446 9.37446 36.0106 11.2114 29.8809 14.705C23.7511 18.1987 18.6369 23.2285 15.0417 29.2992C11.4466 35.37 9.49442 42.2724 9.37753 49.3269C9.26063 56.3814 10.983 63.3447 14.375 69.5312L11.0547 81.2109C10.7424 82.2857 10.7226 83.4243 10.9973 84.5092C11.272 85.5941 11.8312 86.5861 12.6172 87.3828C13.4032 88.1726 14.3884 88.7349 15.4681 89.01C16.5479 89.2851 17.682 89.2627 18.75 88.9453L30.4688 85.625C35.8996 88.6016 41.939 90.2971 48.1255 90.582C54.312 90.8669 60.4817 89.7336 66.1631 87.2688C71.8445 84.804 76.8871 81.0729 80.9057 76.3607C84.9242 71.6485 87.8122 66.0799 89.3489 60.0805C90.8856 54.0812 91.0303 47.81 89.7721 41.7461C88.5138 35.6822 85.8859 29.9863 82.0891 25.0937C78.2923 20.2011 73.4271 16.2413 67.8655 13.5169C62.3039 10.7926 56.1931 9.37586 50 9.375ZM31.25 54.6875C30.3229 54.6875 29.4167 54.4126 28.6458 53.8975C27.8749 53.3824 27.2741 52.6504 26.9193 51.7938C26.5646 50.9373 26.4717 49.9948 26.6526 49.0855C26.8335 48.1762 27.2799 47.341 27.9355 46.6854C28.591 46.0299 29.4263 45.5834 30.3355 45.4026C31.2448 45.2217 32.1873 45.3145 33.0439 45.6693C33.9004 46.0241 34.6325 46.6249 35.1475 47.3958C35.6626 48.1666 35.9375 49.0729 35.9375 50C35.9375 51.2432 35.4437 52.4355 34.5646 53.3146C33.6855 54.1936 32.4932 54.6875 31.25 54.6875ZM50 54.6875C49.0729 54.6875 48.1667 54.4126 47.3958 53.8975C46.6249 53.3824 46.0241 52.6504 45.6693 51.7938C45.3146 50.9373 45.2217 49.9948 45.4026 49.0855C45.5835 48.1762 46.0299 47.341 46.6855 46.6854C47.341 46.0299 48.1763 45.5834 49.0855 45.4026C49.9948 45.2217 50.9373 45.3145 51.7939 45.6693C52.6504 46.0241 53.3825 46.6249 53.8975 47.3958C54.4126 48.1666 54.6875 49.0729 54.6875 50C54.6875 51.2432 54.1937 52.4355 53.3146 53.3146C52.4355 54.1936 51.2432 54.6875 50 54.6875ZM68.75 54.6875C67.8229 54.6875 66.9167 54.4126 66.1458 53.8975C65.375 53.3824 64.7741 52.6504 64.4194 51.7938C64.0646 50.9373 63.9717 49.9948 64.1526 49.0855C64.3335 48.1762 64.7799 47.341 65.4355 46.6854C66.091 46.0299 66.9263 45.5834 67.8356 45.4026C68.7448 45.2217 69.6873 45.3145 70.5439 45.6693C71.4004 46.0241 72.1325 46.6249 72.6476 47.3958C73.1626 48.1666 73.4375 49.0729 73.4375 50C73.4375 51.2432 72.9437 52.4355 72.0646 53.3146C71.1855 54.1936 69.9932 54.6875 68.75 54.6875Z" fill="#FFC655"/>
</svg>
