<svg width="20" height="19" viewBox="0 0 20 19" fill="none" xmlns="http://www.w3.org/2000/svg">
<path d="M6.65603 18.8651H2.53671C1.4039 18.8651 0.477051 17.9382 0.477051 16.8054V2.38778C0.477051 1.25497 1.4039 0.328125 2.53671 0.328125H6.65603C7.78884 0.328125 8.71569 1.25497 8.71569 2.38778V16.8054C8.71569 17.9382 7.78884 18.8651 6.65603 18.8651ZM12.835 18.8651H16.9543C18.0871 18.8651 19.014 17.9382 19.014 16.8054V11.6563C19.014 10.5234 18.0871 9.59659 16.9543 9.59659H12.835C11.7022 9.59659 10.7753 10.5234 10.7753 11.6563V16.8054C10.7753 17.9382 11.7022 18.8651 12.835 18.8651ZM19.014 5.47727V2.38778C19.014 1.25497 18.0871 0.328125 16.9543 0.328125H12.835C11.7022 0.328125 10.7753 1.25497 10.7753 2.38778V5.47727C10.7753 6.61009 11.7022 7.53693 12.835 7.53693H16.9543C18.0871 7.53693 19.014 6.61009 19.014 5.47727Z" fill="#31D490"/>
</svg>
