<svg width="26" height="26" viewBox="0 0 26 26" fill="none" xmlns="http://www.w3.org/2000/svg">
<path d="M7.58331 22.75C6.98748 22.75 6.47759 22.538 6.05365 22.1141C5.62898 21.6894 5.41665 21.1792 5.41665 20.5833V6.5C5.1097 6.5 4.85223 6.39636 4.64423 6.18908C4.43695 5.98108 4.33331 5.72361 4.33331 5.41667C4.33331 5.10972 4.43695 4.85225 4.64423 4.64425C4.85223 4.43697 5.1097 4.33333 5.41665 4.33333H9.74998C9.74998 4.02639 9.85398 3.76892 10.062 3.56092C10.2693 3.35364 10.5264 3.25 10.8333 3.25H15.1666C15.4736 3.25 15.7311 3.35364 15.9391 3.56092C16.1463 3.76892 16.25 4.02639 16.25 4.33333H20.5833C20.8903 4.33333 21.1474 4.43697 21.3546 4.64425C21.5626 4.85225 21.6666 5.10972 21.6666 5.41667C21.6666 5.72361 21.5626 5.98108 21.3546 6.18908C21.1474 6.39636 20.8903 6.5 20.5833 6.5V20.5833C20.5833 21.1792 20.3713 21.6894 19.9474 22.1141C19.5227 22.538 19.0125 22.75 18.4166 22.75H7.58331ZM7.58331 6.5V20.5833H18.4166V6.5H7.58331ZM9.74998 17.3333C9.74998 17.6403 9.85398 17.8974 10.062 18.1047C10.2693 18.3127 10.5264 18.4167 10.8333 18.4167C11.1403 18.4167 11.3977 18.3127 11.6057 18.1047C11.813 17.8974 11.9166 17.6403 11.9166 17.3333V9.75C11.9166 9.44306 11.813 9.18558 11.6057 8.97758C11.3977 8.77031 11.1403 8.66667 10.8333 8.66667C10.5264 8.66667 10.2693 8.77031 10.062 8.97758C9.85398 9.18558 9.74998 9.44306 9.74998 9.75V17.3333ZM14.0833 17.3333C14.0833 17.6403 14.1873 17.8974 14.3953 18.1047C14.6026 18.3127 14.8597 18.4167 15.1666 18.4167C15.4736 18.4167 15.7311 18.3127 15.9391 18.1047C16.1463 17.8974 16.25 17.6403 16.25 17.3333V9.75C16.25 9.44306 16.1463 9.18558 15.9391 8.97758C15.7311 8.77031 15.4736 8.66667 15.1666 8.66667C14.8597 8.66667 14.6026 8.77031 14.3953 8.97758C14.1873 9.18558 14.0833 9.44306 14.0833 9.75V17.3333Z" fill="#E25247"/>
</svg>
