<svg width="29" height="29" viewBox="0 0 29 29" fill="none" xmlns="http://www.w3.org/2000/svg">
<path d="M11.4305 21.4679H18.4305C18.7611 21.4679 19.0383 21.3559 19.2623 21.1319C19.4856 20.9087 19.5972 20.6318 19.5972 20.3013C19.5972 19.9707 19.4856 19.6938 19.2623 19.4706C19.0383 19.2466 18.7611 19.1346 18.4305 19.1346H11.4305C11.0999 19.1346 10.8231 19.2466 10.5998 19.4706C10.3758 19.6938 10.2638 19.9707 10.2638 20.3013C10.2638 20.6318 10.3758 20.9087 10.5998 21.1319C10.8231 21.3559 11.0999 21.4679 11.4305 21.4679ZM11.4305 16.8013H18.4305C18.7611 16.8013 19.0383 16.6893 19.2623 16.4653C19.4856 16.242 19.5972 15.9652 19.5972 15.6346C19.5972 15.304 19.4856 15.0268 19.2623 14.8028C19.0383 14.5795 18.7611 14.4679 18.4305 14.4679H11.4305C11.0999 14.4679 10.8231 14.5795 10.5998 14.8028C10.3758 15.0268 10.2638 15.304 10.2638 15.6346C10.2638 15.9652 10.3758 16.242 10.5998 16.4653C10.8231 16.6893 11.0999 16.8013 11.4305 16.8013ZM7.9305 26.1346C7.28883 26.1346 6.73972 25.9063 6.28317 25.4498C5.82583 24.9924 5.59717 24.4429 5.59717 23.8013V5.1346C5.59717 4.49294 5.82583 3.94344 6.28317 3.4861C6.73972 3.02955 7.28883 2.80127 7.9305 2.80127H16.3013C16.6124 2.80127 16.9092 2.8596 17.1915 2.97627C17.4731 3.09294 17.7208 3.25821 17.9347 3.4721L23.593 9.13044C23.8069 9.34432 23.9722 9.59205 24.0888 9.8736C24.2055 10.1559 24.2638 10.4527 24.2638 10.7638V23.8013C24.2638 24.4429 24.0356 24.9924 23.579 25.4498C23.1217 25.9063 22.5722 26.1346 21.9305 26.1346H7.9305ZM16.0972 9.80127V5.1346H7.9305V23.8013H21.9305V10.9679H17.2638C16.9333 10.9679 16.6564 10.8559 16.4332 10.6319C16.2092 10.4087 16.0972 10.1318 16.0972 9.80127Z" fill="white"/>
</svg>
