<svg width="21" height="21" viewBox="0 0 21 21" fill="none" xmlns="http://www.w3.org/2000/svg">
<path d="M2.04878 21C1.48537 21 1.00288 20.7995 0.601317 20.3984C0.200439 19.998 0 19.5164 0 18.9537V4.62972C0 4.06699 0.200439 3.58509 0.601317 3.18402C1.00288 2.78363 1.48537 2.58343 2.04878 2.58343H11.1915L9.14268 4.62972H2.04878V18.9537H16.3902V11.8429L18.439 9.79659V18.9537C18.439 19.5164 18.2386 19.998 17.8377 20.3984C17.4361 20.7995 16.9537 21 16.3902 21H2.04878ZM13.4963 3.17174L14.9561 4.60414L8.19512 11.3569V12.8149H9.62927L16.4159 6.03654L17.8756 7.46894L11.089 14.2473C10.9012 14.4348 10.6837 14.5842 10.4365 14.6954C10.1886 14.8059 9.92805 14.8611 9.65488 14.8611H7.17073C6.88049 14.8611 6.63737 14.7633 6.44137 14.5675C6.24468 14.3711 6.14634 14.1279 6.14634 13.838V11.3569C6.14634 11.084 6.19756 10.8238 6.3 10.5762C6.40244 10.3293 6.54756 10.1121 6.73537 9.92448L13.4963 3.17174ZM17.8756 7.46894L13.4963 3.17174L16.0573 0.613886C16.4671 0.204629 16.9581 0 17.5304 0C18.102 0 18.5841 0.204629 18.9768 0.613886L20.411 2.07186C20.8037 2.46407 21 2.94153 21 3.50426C21 4.06699 20.8037 4.54446 20.411 4.93666L17.8756 7.46894Z" fill="#7A7A7A"/>
</svg>
