<svg width="30" height="30" viewBox="0 0 30 30" fill="none" xmlns="http://www.w3.org/2000/svg">
<path d="M23.4375 26.25H17.6414C18.6151 25.3806 19.5333 24.4511 20.3906 23.4668C23.6074 19.7672 25.3125 15.8672 25.3125 12.1875C25.3125 9.45246 24.226 6.82943 22.292 4.89546C20.3581 2.96149 17.735 1.875 15 1.875C12.265 1.875 9.64193 2.96149 7.70796 4.89546C5.77399 6.82943 4.6875 9.45246 4.6875 12.1875C4.6875 15.8672 6.38789 19.7672 9.60938 23.4668C10.4667 24.4511 11.3849 25.3806 12.3586 26.25H6.5625C6.31386 26.25 6.0754 26.3488 5.89959 26.5246C5.72377 26.7004 5.625 26.9389 5.625 27.1875C5.625 27.4361 5.72377 27.6746 5.89959 27.8504C6.0754 28.0262 6.31386 28.125 6.5625 28.125H23.4375C23.6861 28.125 23.9246 28.0262 24.1004 27.8504C24.2762 27.6746 24.375 27.4361 24.375 27.1875C24.375 26.9389 24.2762 26.7004 24.1004 26.5246C23.9246 26.3488 23.6861 26.25 23.4375 26.25ZM15 8.4375C15.7417 8.4375 16.4667 8.65743 17.0834 9.06949C17.7001 9.48154 18.1807 10.0672 18.4645 10.7524C18.7484 11.4377 18.8226 12.1917 18.6779 12.9191C18.5333 13.6465 18.1761 14.3147 17.6516 14.8392C17.1272 15.3636 16.459 15.7208 15.7316 15.8654C15.0042 16.0101 14.2502 15.9359 13.5649 15.652C12.8797 15.3682 12.294 14.8876 11.882 14.2709C11.4699 13.6542 11.25 12.9292 11.25 12.1875C11.25 11.1929 11.6451 10.2391 12.3483 9.53585C13.0516 8.83259 14.0054 8.4375 15 8.4375Z" fill="#AAAAAA"/>
</svg>
