<svg width="21" height="32" viewBox="0 0 21 32" fill="none" xmlns="http://www.w3.org/2000/svg">
<path d="M11.8386 10.1458L11.8386 7.64581C11.8386 7.64581 11.8386 5.64581 12.8386 4.64581C13.8386 3.64581 14.8386 3.6458 14.8386 3.6458" stroke="white" stroke-width="1.5" stroke-linecap="round"/>
<path d="M8 14H21V21.5C21 25.0899 18.0899 28 14.5 28V28C10.9101 28 8 25.0899 8 21.5V14Z" fill="white"/>
<path d="M20.25 16.25H8.75L8.75 6.5C8.75 3.32436 11.3244 0.75 14.5 0.75C17.6756 0.75 20.25 3.32436 20.25 6.5V16.25Z" stroke="white" stroke-width="1.5"/>
<mask id="path-4-inside-1_303_2" fill="white">
<path d="M5 19C5 17.3431 6.34315 16 8 16V16C9.65685 16 11 17.3431 11 19V22H5V19Z"/>
</mask>
<path d="M4 19C4 16.7909 5.79086 15 8 15C10.2091 15 12 16.7909 12 19H10C10 17.8954 9.10457 17 8 17C6.89543 17 6 17.8954 6 19H4ZM11 22H5H11ZM4 22V19C4 16.7909 5.79086 15 8 15V17C6.89543 17 6 17.8954 6 19V22H4ZM8 15C10.2091 15 12 16.7909 12 19V22H10V19C10 17.8954 9.10457 17 8 17V15Z" fill="#E0E0E0" mask="url(#path-4-inside-1_303_2)"/>
<path d="M4 19C4 16.7909 5.79086 15 8 15C10.2091 15 12 16.7909 12 19H10C10 17.8954 9.10457 17 8 17C6.89543 17 6 17.8954 6 19H4ZM11 22H5H11ZM4 22V19C4 16.7909 5.79086 15 8 15V17C6.89543 17 6 17.8954 6 19V22H4ZM8 15C10.2091 15 12 16.7909 12 19V22H10V19C10 17.8954 9.10457 17 8 17V15Z" fill="#E0E0E0" mask="url(#path-4-inside-1_303_2)"/>
<path d="M4 19C4 16.7909 5.79086 15 8 15C10.2091 15 12 16.7909 12 19H10C10 17.8954 9.10457 17 8 17C6.89543 17 6 17.8954 6 19H4ZM11 22H5H11ZM4 22V19C4 16.7909 5.79086 15 8 15V17C6.89543 17 6 17.8954 6 19V22H4ZM8 15C10.2091 15 12 16.7909 12 19V22H10V19C10 17.8954 9.10457 17 8 17V15Z" fill="#E0E0E0" mask="url(#path-4-inside-1_303_2)"/>
<path d="M4 19C4 16.7909 5.79086 15 8 15C10.2091 15 12 16.7909 12 19H10C10 17.8954 9.10457 17 8 17C6.89543 17 6 17.8954 6 19H4ZM11 22H5H11ZM4 22V19C4 16.7909 5.79086 15 8 15V17C6.89543 17 6 17.8954 6 19V22H4ZM8 15C10.2091 15 12 16.7909 12 19V22H10V19C10 17.8954 9.10457 17 8 17V15Z" fill="#E0E0E0" mask="url(#path-4-inside-1_303_2)"/>
<mask id="path-6-inside-2_303_2" fill="white">
<path d="M3 27C1.34315 27 0 25.6569 0 24V24C0 22.3431 1.34315 21 3 21H6V27H3Z"/>
</mask>
<path d="M3 28C0.790861 28 -1 26.2091 -1 24C-1 21.7909 0.790861 20 3 20V22C1.89543 22 1 22.8954 1 24C1 25.1046 1.89543 26 3 26V28ZM6 21V27V21ZM6 28H3C0.790861 28 -1 26.2091 -1 24H1C1 25.1046 1.89543 26 3 26H6V28ZM-1 24C-1 21.7909 0.790861 20 3 20H6V22H3C1.89543 22 1 22.8954 1 24H-1Z" fill="#E0E0E0" mask="url(#path-6-inside-2_303_2)"/>
<path d="M3 28C0.790861 28 -1 26.2091 -1 24C-1 21.7909 0.790861 20 3 20V22C1.89543 22 1 22.8954 1 24C1 25.1046 1.89543 26 3 26V28ZM6 21V27V21ZM6 28H3C0.790861 28 -1 26.2091 -1 24H1C1 25.1046 1.89543 26 3 26H6V28ZM-1 24C-1 21.7909 0.790861 20 3 20H6V22H3C1.89543 22 1 22.8954 1 24H-1Z" fill="#E0E0E0" mask="url(#path-6-inside-2_303_2)"/>
<path d="M3 28C0.790861 28 -1 26.2091 -1 24C-1 21.7909 0.790861 20 3 20V22C1.89543 22 1 22.8954 1 24C1 25.1046 1.89543 26 3 26V28ZM6 21V27V21ZM6 28H3C0.790861 28 -1 26.2091 -1 24H1C1 25.1046 1.89543 26 3 26H6V28ZM-1 24C-1 21.7909 0.790861 20 3 20H6V22H3C1.89543 22 1 22.8954 1 24H-1Z" fill="#E0E0E0" mask="url(#path-6-inside-2_303_2)"/>
<path d="M3 28C0.790861 28 -1 26.2091 -1 24C-1 21.7909 0.790861 20 3 20V22C1.89543 22 1 22.8954 1 24C1 25.1046 1.89543 26 3 26V28ZM6 21V27V21ZM6 28H3C0.790861 28 -1 26.2091 -1 24H1C1 25.1046 1.89543 26 3 26H6V28ZM-1 24C-1 21.7909 0.790861 20 3 20H6V22H3C1.89543 22 1 22.8954 1 24H-1Z" fill="#E0E0E0" mask="url(#path-6-inside-2_303_2)"/>
<mask id="path-8-inside-3_303_2" fill="white">
<path d="M11 29C11 30.6569 9.65685 32 8 32V32C6.34315 32 5 30.6569 5 29L5 26H11V29Z"/>
</mask>
<path d="M12 29C12 31.2091 10.2091 33 8 33C5.79086 33 4 31.2091 4 29H6C6 30.1046 6.89543 31 8 31C9.10457 31 10 30.1046 10 29H12ZM5 26H11H5ZM12 26V29C12 31.2091 10.2091 33 8 33V31C9.10457 31 10 30.1046 10 29V26H12ZM8 33C5.79086 33 4 31.2091 4 29L4 26H6L6 29C6 30.1046 6.89543 31 8 31V33Z" fill="#E0E0E0" mask="url(#path-8-inside-3_303_2)"/>
<path d="M12 29C12 31.2091 10.2091 33 8 33C5.79086 33 4 31.2091 4 29H6C6 30.1046 6.89543 31 8 31C9.10457 31 10 30.1046 10 29H12ZM5 26H11H5ZM12 26V29C12 31.2091 10.2091 33 8 33V31C9.10457 31 10 30.1046 10 29V26H12ZM8 33C5.79086 33 4 31.2091 4 29L4 26H6L6 29C6 30.1046 6.89543 31 8 31V33Z" fill="#E0E0E0" mask="url(#path-8-inside-3_303_2)"/>
<path d="M12 29C12 31.2091 10.2091 33 8 33C5.79086 33 4 31.2091 4 29H6C6 30.1046 6.89543 31 8 31C9.10457 31 10 30.1046 10 29H12ZM5 26H11H5ZM12 26V29C12 31.2091 10.2091 33 8 33V31C9.10457 31 10 30.1046 10 29V26H12ZM8 33C5.79086 33 4 31.2091 4 29L4 26H6L6 29C6 30.1046 6.89543 31 8 31V33Z" fill="#E0E0E0" mask="url(#path-8-inside-3_303_2)"/>
<path d="M12 29C12 31.2091 10.2091 33 8 33C5.79086 33 4 31.2091 4 29H6C6 30.1046 6.89543 31 8 31C9.10457 31 10 30.1046 10 29H12ZM5 26H11H5ZM12 26V29C12 31.2091 10.2091 33 8 33V31C9.10457 31 10 30.1046 10 29V26H12ZM8 33C5.79086 33 4 31.2091 4 29L4 26H6L6 29C6 30.1046 6.89543 31 8 31V33Z" fill="#E0E0E0" mask="url(#path-8-inside-3_303_2)"/>
<mask id="path-10-inside-4_303_2" fill="white">
<path d="M13 21C14.6569 21 16 22.3431 16 24V24C16 25.6569 14.6569 27 13 27H10V21H13Z"/>
</mask>
<path d="M13 20C15.2091 20 17 21.7909 17 24C17 26.2091 15.2091 28 13 28V26C14.1046 26 15 25.1046 15 24C15 22.8954 14.1046 22 13 22V20ZM10 27V21V27ZM10 20H13C15.2091 20 17 21.7909 17 24H15C15 22.8954 14.1046 22 13 22H10V20ZM17 24C17 26.2091 15.2091 28 13 28H10V26H13C14.1046 26 15 25.1046 15 24H17Z" fill="#E0E0E0" mask="url(#path-10-inside-4_303_2)"/>
<path d="M13 20C15.2091 20 17 21.7909 17 24C17 26.2091 15.2091 28 13 28V26C14.1046 26 15 25.1046 15 24C15 22.8954 14.1046 22 13 22V20ZM10 27V21V27ZM10 20H13C15.2091 20 17 21.7909 17 24H15C15 22.8954 14.1046 22 13 22H10V20ZM17 24C17 26.2091 15.2091 28 13 28H10V26H13C14.1046 26 15 25.1046 15 24H17Z" fill="#E0E0E0" mask="url(#path-10-inside-4_303_2)"/>
<path d="M13 20C15.2091 20 17 21.7909 17 24C17 26.2091 15.2091 28 13 28V26C14.1046 26 15 25.1046 15 24C15 22.8954 14.1046 22 13 22V20ZM10 27V21V27ZM10 20H13C15.2091 20 17 21.7909 17 24H15C15 22.8954 14.1046 22 13 22H10V20ZM17 24C17 26.2091 15.2091 28 13 28H10V26H13C14.1046 26 15 25.1046 15 24H17Z" fill="#E0E0E0" mask="url(#path-10-inside-4_303_2)"/>
<path d="M13 20C15.2091 20 17 21.7909 17 24C17 26.2091 15.2091 28 13 28V26C14.1046 26 15 25.1046 15 24C15 22.8954 14.1046 22 13 22V20ZM10 27V21V27ZM10 20H13C15.2091 20 17 21.7909 17 24H15C15 22.8954 14.1046 22 13 22H10V20ZM17 24C17 26.2091 15.2091 28 13 28H10V26H13C14.1046 26 15 25.1046 15 24H17Z" fill="#E0E0E0" mask="url(#path-10-inside-4_303_2)"/>
</svg>
