<svg width="43" height="43" viewBox="0 0 43 43" fill="none" xmlns="http://www.w3.org/2000/svg">
<g clip-path="url(#clip0_245_2)">
<rect width="43" height="43" fill="white"/>
<path fill-rule="evenodd" clip-rule="evenodd" d="M21.5 3.58301C31.3954 3.58301 39.4167 11.6043 39.4167 21.4997C39.4167 31.395 31.3954 39.4163 21.5 39.4163C11.6047 39.4163 3.58337 31.395 3.58337 21.4997C3.58337 11.6043 11.6047 3.58301 21.5 3.58301ZM29.5625 18.8122C28.8498 18.8122 28.1662 19.0953 27.6622 19.5993C27.1582 20.1033 26.875 20.7869 26.875 21.4997C26.875 22.2124 27.1582 22.896 27.6622 23.4C28.1662 23.904 28.8498 24.1872 29.5625 24.1872C30.2753 24.1872 30.9589 23.904 31.4629 23.4C31.9669 22.896 32.25 22.2124 32.25 21.4997C32.25 20.7869 31.9669 20.1033 31.4629 19.5993C30.9589 19.0953 30.2753 18.8122 29.5625 18.8122ZM21.5 18.8122C20.7873 18.8122 20.1037 19.0953 19.5997 19.5993C19.0957 20.1033 18.8125 20.7869 18.8125 21.4997C18.8125 22.2124 19.0957 22.896 19.5997 23.4C20.1037 23.904 20.7873 24.1872 21.5 24.1872C22.2128 24.1872 22.8964 23.904 23.4004 23.4C23.9044 22.896 24.1875 22.2124 24.1875 21.4997C24.1875 20.7869 23.9044 20.1033 23.4004 19.5993C22.8964 19.0953 22.2128 18.8122 21.5 18.8122ZM13.4375 18.8122C12.7248 18.8122 12.0412 19.0953 11.5372 19.5993C11.0332 20.1033 10.75 20.7869 10.75 21.4997C10.75 22.2124 11.0332 22.896 11.5372 23.4C12.0412 23.904 12.7248 24.1872 13.4375 24.1872C14.1503 24.1872 14.8339 23.904 15.3379 23.4C15.8419 22.896 16.125 22.2124 16.125 21.4997C16.125 20.7869 15.8419 20.1033 15.3379 19.5993C14.8339 19.0953 14.1503 18.8122 13.4375 18.8122Z" fill="#7A7A7A"/>
</g>
<defs>
<clipPath id="clip0_245_2">
<rect width="43" height="43" fill="white"/>
</clipPath>
</defs>
</svg>
