<svg width="24" height="24" viewBox="0 0 24 24" fill="none" xmlns="http://www.w3.org/2000/svg">
<path d="M6 3C7 3 9 3.6 9 6C9 8.4 7 9 6 9H18M6 3H18C19 3 21 3.6 21 6C21 8.4 19 9 18 9M6 3C5 3 3 3.6 3 6V19.002C3 20.106 3.895 21 5 21H10.5M18 9V10M7 13H10M7 17H10M14 19V16M14 16V13H17.5C17.8978 13 18.2794 13.158 18.5607 13.4393C18.842 13.7206 19 14.1022 19 14.5C19 14.8978 18.842 15.2794 18.5607 15.5607C18.2794 15.842 17.8978 16 17.5 16H16M14 16H16M16 16L19 19M19 19L21 21M19 19L21 17M19 19L17 21" stroke="#111111" stroke-width="2" stroke-linecap="round" stroke-linejoin="round"/>
</svg>
