<svg width="30" height="21" viewBox="0 0 30 21" fill="none" xmlns="http://www.w3.org/2000/svg">
<path d="M17.9133 20.435C17.5281 20.0583 17.3432 19.6031 17.3586 19.0695C17.3753 18.5359 17.5762 18.0807 17.9615 17.704L23.4029 12.3834H1.92616C1.38042 12.3834 0.922633 12.2026 0.552809 11.841C0.18427 11.4806 0 11.0336 0 10.5C0 9.96637 0.18427 9.51874 0.552809 9.15713C0.922633 8.79677 1.38042 8.61659 1.92616 8.61659H23.4029L17.9133 3.24888C17.5281 2.8722 17.3355 2.42457 17.3355 1.90601C17.3355 1.3887 17.5281 0.941703 17.9133 0.565022C18.2986 0.18834 18.7563 0 19.2867 0C19.8157 0 20.2729 0.18834 20.6581 0.565022L29.4703 9.18161C29.6629 9.36995 29.7997 9.57399 29.8806 9.79372C29.9602 10.0135 30 10.2489 30 10.5C30 10.7511 29.9602 10.9865 29.8806 11.2063C29.7997 11.426 29.6629 11.63 29.4703 11.8184L20.61 20.4821C20.2568 20.8274 19.8157 21 19.2867 21C18.7563 21 18.2986 20.8117 17.9133 20.435Z" fill="white"/>
</svg>
