<svg width="260" height="260" viewBox="0 0 260 260" fill="none" xmlns="http://www.w3.org/2000/svg">
<path d="M65.1195 202.405C100.953 219.482 159.047 219.487 194.88 202.405C230.714 185.323 230.708 157.638 194.88 140.561C159.052 123.484 100.953 123.484 65.1195 140.561C29.2863 157.638 29.2915 185.328 65.1195 202.405Z" fill="#F5F5F5"/>
<path d="M194.756 189.784C201.355 189.784 206.705 187.235 206.705 184.09C206.705 180.946 201.355 178.396 194.756 178.396C188.156 178.396 182.806 180.946 182.806 184.09C182.806 187.235 188.156 189.784 194.756 189.784Z" fill="#EBEBEB"/>
<path d="M62.3999 184.907L66.6275 182.468C68.9879 180.542 70.7844 178.014 71.8275 175.152C73.1327 171.553 72.9507 168.818 72.0147 167.445C70.8655 165.755 67.8859 166.052 67.7663 169.608C67.5167 176.618 65.4731 181.48 62.3999 184.907Z" fill="#5D94E7"/>
<path d="M62.3999 184.907L66.6275 182.468C68.9879 180.542 70.7844 178.014 71.8275 175.152C73.1327 171.553 72.9507 168.818 72.0147 167.445C70.8655 165.755 67.8859 166.052 67.7663 169.608C67.5167 176.618 65.4731 181.48 62.3999 184.907Z" fill="#00B368"/>
<path d="M62.3999 185.167C62.3448 185.166 62.2914 185.148 62.2473 185.115C62.2032 185.082 62.1708 185.036 62.1546 184.983C62.1384 184.931 62.1393 184.874 62.1572 184.822C62.1751 184.77 62.2091 184.725 62.2543 184.694C72.0303 177.934 70.1375 168.506 70.1167 168.412C70.1095 168.378 70.1091 168.343 70.1156 168.309C70.122 168.274 70.1352 168.242 70.1542 168.213C70.1733 168.183 70.1979 168.158 70.2267 168.138C70.2555 168.119 70.2879 168.105 70.3221 168.098C70.3562 168.091 70.3914 168.09 70.4257 168.097C70.46 168.103 70.4927 168.116 70.5219 168.135C70.5511 168.154 70.5763 168.179 70.596 168.208C70.6157 168.237 70.6295 168.269 70.6367 168.303C70.6367 168.402 72.6335 178.152 62.5663 185.12C62.5174 185.153 62.459 185.17 62.3999 185.167V185.167Z" fill="white"/>
<path d="M53.9291 189.8C53.9291 189.8 52.4575 188.604 52.8111 186.982C53.1647 185.359 54.1163 184.194 52.4887 182.104C50.8611 180.014 50.4087 177.226 52.3535 175.718C53.8355 174.548 56.1495 176.202 56.9815 173.118C57.5951 170.862 57.3871 165.864 60.2627 164.2C63.1383 162.536 64.9427 165.043 64.4903 168.433C64.0951 171.465 63.5335 174.382 63.9703 175.193C64.8127 176.753 66.2531 176.54 66.1855 179.39C66.1283 182.042 63.6167 184.236 63.6167 184.236L53.9291 189.8Z" fill="#31D490"/>
<path d="M58.76 187.257C58.6964 187.257 58.6352 187.233 58.5875 187.191C58.5398 187.149 58.5087 187.091 58.5 187.028C57.7564 180.866 59.54 170.227 60.996 167.066C61.0083 167.031 61.0279 166.998 61.0536 166.972C61.0792 166.945 61.1104 166.924 61.1449 166.91C61.1794 166.896 61.2164 166.89 61.2535 166.892C61.2906 166.893 61.3269 166.903 61.36 166.92C61.391 166.934 61.419 166.954 61.4421 166.979C61.4653 167.004 61.4832 167.033 61.4948 167.065C61.5065 167.097 61.5116 167.131 61.5099 167.165C61.5081 167.199 61.4996 167.233 61.4848 167.263C60.0444 170.383 58.3232 181.054 59.0356 186.945C59.0429 187.013 59.023 187.082 58.9801 187.135C58.9372 187.189 58.8749 187.223 58.8068 187.231L58.76 187.257Z" fill="white"/>
<path d="M58.6196 182.458C58.5799 182.46 58.5403 182.451 58.5052 182.432C56.7008 181.553 55.5568 178.417 55.51 178.272C55.4973 178.239 55.4912 178.205 55.492 178.17C55.4929 178.135 55.5007 178.101 55.515 178.069C55.5293 178.038 55.5498 178.009 55.5753 177.985C55.6008 177.962 55.6308 177.944 55.6635 177.932C55.6962 177.92 55.7309 177.915 55.7656 177.917C55.8004 177.918 55.8344 177.927 55.8656 177.942C55.8969 177.958 55.9248 177.979 55.9477 178.005C55.9705 178.031 55.988 178.062 55.9988 178.095C55.9988 178.126 57.1168 181.163 58.734 181.948C58.7871 181.974 58.8298 182.017 58.8553 182.07C58.8807 182.123 58.8873 182.183 58.874 182.241C58.8607 182.298 58.8283 182.349 58.7821 182.386C58.7359 182.422 58.6786 182.442 58.6196 182.442V182.458Z" fill="white"/>
<path d="M58.5883 184.538C58.5362 184.538 58.4853 184.522 58.4425 184.492C58.3998 184.462 58.3671 184.42 58.3491 184.371C58.3232 184.308 58.3234 184.237 58.3497 184.173C58.376 184.11 58.4262 184.06 58.4895 184.033C61.5263 182.816 63.4191 179.202 63.4399 179.161C63.4716 179.099 63.5264 179.053 63.5922 179.032C63.658 179.011 63.7295 179.017 63.7909 179.049C63.8522 179.081 63.8985 179.136 63.9195 179.201C63.9404 179.267 63.9344 179.339 63.9027 179.4C63.8195 179.556 61.9007 183.227 58.7027 184.517C58.667 184.534 58.6276 184.541 58.5883 184.538V184.538Z" fill="white"/>
<path d="M164.736 156.562C164.736 156.562 162.464 152.88 162.24 148.881C162.016 144.882 162.895 143.218 164.102 142.74C165.308 142.262 165.402 143.733 166.02 144.602C166.639 145.47 167.903 144.976 168.371 142.267C168.839 139.558 170.544 134.987 174.091 134.098C177.991 133.13 175.9 137.706 174.918 139.49C173.935 141.274 173.176 143.707 173.82 144.368C174.465 145.028 175.469 143.806 176.42 144.94C177.58 146.307 173.976 151.232 171.907 152.422L164.736 156.562Z" fill="#31D490"/>
<path d="M167.851 155.017C167.816 155.016 167.783 155.008 167.752 154.993C167.721 154.979 167.693 154.959 167.67 154.934C167.647 154.909 167.629 154.879 167.617 154.847C167.605 154.815 167.6 154.781 167.601 154.747C167.953 148.314 169.959 142.081 173.425 136.651C173.445 136.623 173.47 136.599 173.499 136.58C173.528 136.562 173.561 136.55 173.595 136.544C173.629 136.539 173.664 136.541 173.697 136.549C173.73 136.558 173.762 136.573 173.789 136.594C173.844 136.634 173.88 136.694 173.891 136.761C173.901 136.828 173.885 136.897 173.846 136.952C170.442 142.303 168.473 148.44 168.126 154.773C168.124 154.807 168.116 154.84 168.101 154.871C168.086 154.902 168.065 154.93 168.039 154.952C168.014 154.975 167.984 154.992 167.951 155.004C167.919 155.015 167.885 155.019 167.851 155.017Z" fill="white"/>
<path d="M168.147 151.944C168.104 151.944 168.061 151.933 168.022 151.913C166.566 151.107 165.76 148.715 165.729 148.616C165.718 148.584 165.713 148.549 165.715 148.515C165.717 148.481 165.725 148.447 165.74 148.416C165.755 148.385 165.776 148.357 165.802 148.335C165.828 148.312 165.858 148.294 165.89 148.283C165.956 148.262 166.027 148.267 166.089 148.299C166.15 148.33 166.197 148.384 166.218 148.45C166.218 148.45 166.998 150.753 168.298 151.455C168.357 151.49 168.4 151.546 168.419 151.612C168.437 151.678 168.429 151.748 168.397 151.809C168.373 151.854 168.337 151.89 168.293 151.914C168.248 151.938 168.198 151.949 168.147 151.944Z" fill="white"/>
<path d="M168.402 150.368C168.344 150.368 168.288 150.348 168.243 150.312C168.198 150.276 168.166 150.227 168.152 150.171C168.144 150.138 168.142 150.104 168.147 150.07C168.151 150.037 168.163 150.005 168.18 149.975C168.198 149.946 168.221 149.921 168.248 149.901C168.275 149.881 168.307 149.867 168.339 149.859C172.094 148.907 173.394 146.942 173.404 146.921C173.423 146.892 173.447 146.867 173.475 146.847C173.503 146.827 173.535 146.813 173.568 146.806C173.602 146.798 173.637 146.797 173.67 146.803C173.704 146.809 173.737 146.822 173.766 146.84C173.795 146.859 173.82 146.883 173.84 146.911C173.859 146.939 173.873 146.971 173.881 147.004C173.888 147.038 173.889 147.072 173.883 147.106C173.877 147.14 173.865 147.173 173.846 147.202C173.789 147.29 172.437 149.354 168.469 150.363L168.402 150.368Z" fill="white"/>
<path d="M108.16 148.481C108.16 148.481 103.173 147.264 102.913 137.925C102.638 127.847 104.135 116.085 98.2331 115.133C92.3311 114.182 89.0551 121.373 89.1279 129.771C89.1955 137.124 92.1595 153.088 108.139 156.218L108.16 148.481Z" fill="#5D94E7"/>
<path d="M108.16 148.481C108.16 148.481 103.173 147.264 102.913 137.925C102.638 127.847 104.135 116.085 98.2331 115.133C92.3311 114.182 89.0551 121.373 89.1279 129.771C89.1955 137.124 92.1595 153.088 108.139 156.218L108.16 148.481Z" fill="#00B368"/>
<path d="M108.16 155.262H108.113C104.52 154.606 101.592 152.625 99.4136 149.38C92.9552 139.745 94.9884 121.753 95.6592 118.612C95.6742 118.545 95.7146 118.487 95.7718 118.449C95.829 118.411 95.8986 118.397 95.966 118.409C96.0334 118.425 96.0919 118.467 96.1296 118.525C96.1674 118.583 96.1814 118.653 96.1688 118.721C95.5084 121.841 93.4856 139.604 99.8452 149.089C100.771 150.56 101.992 151.823 103.432 152.796C104.871 153.77 106.497 154.435 108.207 154.747C108.241 154.753 108.273 154.766 108.302 154.785C108.331 154.804 108.356 154.828 108.375 154.857C108.394 154.885 108.408 154.917 108.415 154.951C108.422 154.985 108.422 155.02 108.415 155.054C108.404 155.113 108.372 155.166 108.325 155.204C108.279 155.242 108.22 155.263 108.16 155.262V155.262Z" fill="white"/>
<path d="M108.16 179.228C103.007 179.925 94.6399 179.915 89.8091 176.108C84.9783 172.302 85.9871 169.026 87.8435 167.658C89.6999 166.291 91.3119 164.731 88.1191 161.694C84.9263 158.657 79.7991 153.78 78.1351 146.463C76.4711 139.147 77.2927 134.571 80.5583 133.047C83.7251 131.57 84.5623 133.921 86.5019 138.767C88.4415 143.614 92.8043 139.459 96.5379 140.972C100.272 142.485 100.121 145.48 100.355 148.054C100.589 150.628 101.821 151.341 103.938 151.341C106.054 151.341 108.16 152.558 108.16 154.981V179.228Z" fill="#31D490"/>
<path d="M108.16 170.732C108.138 170.737 108.114 170.737 108.092 170.732C107.869 170.669 102.539 169.12 94.775 161.99C86.507 154.398 82.607 143.01 82.5654 142.896C82.5455 142.83 82.5517 142.76 82.5827 142.699C82.6137 142.638 82.6672 142.591 82.7318 142.568C82.7967 142.547 82.8674 142.552 82.9287 142.582C82.99 142.612 83.037 142.665 83.0594 142.73C83.0958 142.844 86.9594 154.107 95.1286 161.606C102.783 168.641 108.175 170.217 108.233 170.232C108.265 170.242 108.296 170.258 108.323 170.279C108.349 170.301 108.371 170.327 108.388 170.357C108.404 170.387 108.415 170.42 108.418 170.454C108.422 170.488 108.419 170.522 108.409 170.555C108.393 170.607 108.359 170.653 108.314 170.685C108.269 170.717 108.215 170.733 108.16 170.732Z" fill="white"/>
<path d="M96.9435 163.8C96.8912 163.801 96.84 163.785 96.7971 163.755C96.7542 163.725 96.7217 163.683 96.7043 163.634C95.0351 159.349 94.6555 150.181 94.6243 149.791C94.6229 149.723 94.6481 149.656 94.6946 149.606C94.7411 149.555 94.8054 149.525 94.8739 149.521C94.9418 149.522 95.007 149.548 95.0569 149.594C95.1068 149.64 95.1379 149.703 95.1443 149.77C95.1443 149.864 95.5343 159.24 97.1723 163.446C97.1849 163.478 97.1909 163.513 97.1901 163.547C97.1893 163.582 97.1816 163.615 97.1676 163.647C97.1536 163.678 97.1334 163.707 97.1083 163.73C97.0833 163.754 97.0538 163.772 97.0215 163.784C96.9964 163.793 96.9702 163.799 96.9435 163.8Z" fill="white"/>
<path d="M96.902 169.962C96.4225 169.966 95.9433 169.941 95.4667 169.889C95.4326 169.885 95.3996 169.874 95.3696 169.857C95.3397 169.841 95.3133 169.818 95.292 169.791C95.2708 169.764 95.2551 169.733 95.2458 169.7C95.2365 169.667 95.2339 169.632 95.2379 169.598C95.242 169.564 95.2528 169.531 95.2697 169.501C95.2865 169.471 95.3091 169.445 95.3362 169.423C95.3632 169.402 95.3942 169.386 95.4273 169.377C95.4604 169.368 95.495 169.365 95.5292 169.369C95.576 169.369 100.417 169.92 102.638 167.658C102.661 167.631 102.689 167.609 102.721 167.593C102.753 167.577 102.789 167.568 102.824 167.566C102.86 167.565 102.896 167.571 102.929 167.583C102.963 167.596 102.993 167.616 103.019 167.641C103.044 167.666 103.064 167.696 103.078 167.73C103.091 167.763 103.097 167.799 103.096 167.834C103.095 167.87 103.086 167.905 103.071 167.938C103.056 167.97 103.034 167.999 103.007 168.022C101.4 169.681 98.5972 169.962 96.902 169.962Z" fill="white"/>
<path d="M93.1581 71.4948L92.5965 68.2552L89.7053 70.1584C89.4411 69.6384 89.0667 69.1824 88.6081 68.822L89.9913 65.078L87.3913 64.5008L85.4881 68.1408C84.7995 68.257 84.1319 68.4742 83.5069 68.7856L82.6801 66.04L79.5913 68.4684L79.7941 71.6924C79.1651 72.397 78.5947 73.1518 78.0885 73.9492L75.5405 73.8192L73.7517 77.8284L75.9409 78.7644C75.7123 79.5937 75.5678 80.4438 75.5093 81.302L72.7273 83.8604L73.2837 87.1052L76.1801 85.202C76.4428 85.7215 76.8175 86.1762 77.2773 86.5332L75.9201 90.2824L78.5201 90.8544L81.2449 88.2024C81.8741 88.1036 81.7181 86.918 82.4045 86.58L83.2313 89.3152L86.3149 86.892L86.2369 85.6232C86.8609 84.9264 89.2217 83.3924 89.7313 82.5916L90.3709 81.5516L92.1597 77.5424L91.3277 76.0344L90.4021 74.0688L93.1581 71.4948ZM83.7201 82.16C81.3489 84.0216 80.6001 84.4324 80.1997 81.9416C79.7993 79.4508 81.1565 75.6652 83.5277 73.7984C85.8989 71.9316 86.8037 71.8016 87.2301 74.2872C87.6565 76.7728 86.0965 80.3192 83.7201 82.16Z" fill="#E0E0E0"/>
<path d="M87.412 64.5008L90.7868 66.4456L88.8836 70.0752L85.5088 68.1304L87.412 64.5008Z" fill="#F5F5F5"/>
<path d="M95.9711 70.2L93.0799 72.1032L89.7051 70.1584L92.5963 68.2552L95.9711 70.2Z" fill="#F5F5F5"/>
<path d="M95.5083 79.4716L93.3191 78.5408L89.9443 76.596L92.1335 77.5268L95.5083 79.4716Z" fill="#E0E0E0"/>
<path d="M75.9148 90.2824L79.2896 92.222L80.6728 88.478L77.298 86.5332L75.9148 90.2824Z" fill="#E0E0E0"/>
<path d="M86.5748 91.26L83.2052 89.3152L82.3784 86.58L85.7532 88.5248L86.5748 91.26Z" fill="#E0E0E0"/>
<path d="M96.5276 73.4396L95.9712 70.2L93.08 72.1032C92.8139 71.583 92.4377 71.1269 91.9776 70.7668L93.3608 67.0228L90.7868 66.4456L88.8784 70.0856C88.1898 70.2018 87.5222 70.419 86.8972 70.7304L86.0756 67.9952L82.9868 70.4236L83.1896 73.6476C82.5599 74.3572 81.9895 75.1172 81.484 75.92L78.9308 75.79L77.142 79.7992L79.3312 80.7352C79.1047 81.5667 78.9602 82.4183 78.8996 83.278L76.1228 85.8L76.6792 89.0448L79.5704 87.1416C79.8366 87.6603 80.2128 88.1146 80.6728 88.4728L79.2896 92.2168L81.8896 92.794L83.7928 89.154C84.484 89.0391 85.1538 88.82 85.7792 88.504L86.6008 91.2392L89.6896 88.816L89.4868 85.592C90.1158 84.8874 90.6862 84.1326 91.1924 83.3352L93.7456 83.46L95.5344 79.4508L93.314 78.52C93.5442 77.6891 93.6905 76.8373 93.7508 75.9772L96.5276 73.4396ZM87.1 84.1256C84.734 85.9872 82.4668 85.4828 82.0352 82.9972C81.6036 80.5116 83.1792 76.9808 85.5504 75.1192C87.9216 73.2576 90.1836 73.7672 90.6152 76.2528C91.0468 78.7384 89.4712 82.264 87.1 84.1256Z" fill="#EBEBEB"/>
<path d="M86.0757 67.9848L82.7009 66.04L79.6121 68.4684L82.9869 70.4132L86.0757 67.9848Z" fill="#F5F5F5"/>
<path d="M79.6121 68.4684L79.8149 71.6924L83.1897 73.6372L82.9869 70.4132L79.6121 68.4684Z" fill="#E0E0E0"/>
<path d="M81.4841 75.894L78.1093 73.9492L75.5613 73.8244L78.9309 75.7692L81.4841 75.894Z" fill="#F5F5F5"/>
<path d="M75.5613 73.8244L73.7725 77.8284L77.1421 79.7732L78.9309 75.7692L75.5613 73.8244Z" fill="#E0E0E0"/>
<path d="M78.8996 83.2468L75.53 81.302L72.748 83.8604L76.1177 85.8052L78.8996 83.2468Z" fill="#F5F5F5"/>
<path d="M76.6793 89.05L73.3045 87.1052L72.748 83.8604L76.1177 85.8052L76.6793 89.05Z" fill="#E0E0E0"/>
<path d="M90.7869 66.4456L87.4121 64.5008L89.9913 65.078L93.3609 67.0228L90.7869 66.4456Z" fill="#F5F5F5"/>
<path d="M78.0468 56.7892V51.948L74.1936 53.6848C73.9895 52.8634 73.637 52.0863 73.1536 51.3916L75.582 46.4984L72.618 44.7876L69.5916 49.3376C68.7482 49.2639 67.8985 49.3468 67.0852 49.582L66.6588 45.3752L62.4676 47.7984L62.0464 52.4784C61.1342 53.2866 60.2955 54.1741 59.54 55.1304L56.5136 54.0904L53.5496 59.228L55.9728 61.308C55.525 62.4403 55.177 63.6095 54.9328 64.8024L51.0796 67.5116V72.358L54.9328 70.6212C55.1369 71.4426 55.4893 72.2197 55.9728 72.9144L53.56 77.8128L56.524 79.5236L59.5504 74.9736C60.3938 75.047 61.2435 74.9642 62.0568 74.7292L62.478 78.936L66.6692 76.5128L67.0956 71.8328C68.4037 71.3555 69.5626 70.5411 70.4548 69.472L72.6284 70.2364L75.5924 65.104L73.7724 63.544C74.1675 62.2431 74.3139 60.8795 74.204 59.5244L78.0468 56.7892ZM64.5632 68.8844C61.3496 70.7408 59.3632 69.4044 59.3632 65.7072C59.3632 62.01 62.0204 57.4392 65.2392 55.5828C68.458 53.7264 70.4028 55.0628 70.4028 58.7912C70.4028 62.5196 67.782 67.0228 64.5632 68.8844Z" fill="#E0E0E0"/>
<path d="M75.9876 46.7272L72.6179 44.7876L69.5916 49.3376L72.9612 51.2824L75.9876 46.7272Z" fill="#F5F5F5"/>
<path d="M81.4216 53.8928L78.0468 51.948L74.1936 53.6848L77.5684 55.6296L81.4216 53.8928Z" fill="#F5F5F5"/>
<path d="M65.8372 80.8808L62.4676 78.936L62.0464 74.7292L65.416 76.674L65.8372 80.8808Z" fill="#E0E0E0"/>
<path d="M53.5444 77.8128L56.9192 79.7576L59.3476 74.8644L55.9728 72.9196L53.5444 77.8128Z" fill="#E0E0E0"/>
<path d="M81.4215 58.76V53.9188L77.5683 55.64C77.3664 54.8179 77.0138 54.0404 76.5283 53.3468L78.9567 48.4536L75.9927 46.7376L72.9664 51.2928C72.123 51.2166 71.2727 51.2995 70.4599 51.5372L70.0335 47.32L65.8423 49.7432L65.4159 54.4232C64.5051 55.2328 63.6665 56.1202 62.9095 57.0752L59.8831 56.0352L56.9191 61.1728L59.3475 63.2528C58.8974 64.3843 58.5494 65.5537 58.3075 66.7472L54.4543 69.4564V74.3028L58.3075 72.566C58.5094 73.3882 58.862 74.1657 59.3475 74.8592L56.9191 79.7524L59.8831 81.4632L62.9095 76.9132C63.7529 76.9869 64.6027 76.904 65.4159 76.6688L65.8423 80.8756L70.0335 78.4524L70.4547 73.7724C71.3669 72.9642 72.2056 72.0767 72.9611 71.1204L75.9875 72.1604L78.9515 67.028L76.5231 64.948C76.9731 63.8165 77.3212 62.647 77.5631 61.4536L81.4215 58.76ZM67.9379 70.8552C64.7191 72.7116 62.1087 71.2036 62.1087 67.4908C62.1087 63.778 64.7087 59.2592 67.9379 57.3976C71.1671 55.536 73.7619 57.0492 73.7619 60.762C73.7619 64.4748 71.1515 68.9676 67.9379 70.8292V70.8552Z" fill="#EBEBEB"/>
<path d="M59.5401 55.1408L62.9097 57.0856L59.8833 56.03L56.5137 54.08L59.5401 55.1408Z" fill="#F0F0F0"/>
<path d="M56.5131 54.0853L53.5483 59.2246L56.922 61.1709L59.8868 56.0315L56.5131 54.0853Z" fill="#F5F5F5"/>
<path d="M53.5444 59.2176L56.9192 61.1624L59.3476 63.2528L55.9728 61.3132L53.5444 59.2176Z" fill="#E0E0E0"/>
<path d="M54.9328 64.8076L58.3076 66.7524L54.4544 69.4616L51.0796 67.5168L54.9328 64.8076Z" fill="#F5F5F5"/>
<path d="M51.0796 67.5168L54.4544 69.4616V74.308L51.0796 72.3632V67.5168Z" fill="#E0E0E0"/>
<path d="M70.0335 47.32L66.6587 45.3752L62.4675 47.7984L65.8371 49.7432L70.0335 47.32Z" fill="#F5F5F5"/>
<path d="M113.298 186.186L162.178 157.96C162.285 157.923 162.378 157.852 162.444 157.759C162.51 157.666 162.546 157.555 162.546 157.44C162.546 157.326 162.51 157.215 162.444 157.122C162.378 157.029 162.285 156.958 162.178 156.92L157.659 154.32C157.379 154.18 157.07 154.106 156.757 154.106C156.443 154.106 156.134 154.18 155.854 154.32L106.959 182.52C106.851 182.558 106.758 182.628 106.692 182.721C106.626 182.815 106.59 182.926 106.59 183.04C106.59 183.154 106.626 183.265 106.692 183.359C106.758 183.452 106.851 183.522 106.959 183.56L111.493 186.16C111.771 186.305 112.079 186.383 112.392 186.387C112.706 186.392 113.016 186.323 113.298 186.186V186.186Z" fill="#E0E0E0"/>
<path d="M160.836 48.984L116.761 74.4328C116.105 74.8604 115.56 75.4363 115.169 76.1138C114.778 76.7914 114.552 77.5516 114.509 78.3328V182.889C114.509 184.324 115.518 184.907 116.761 184.189L160.836 158.74C161.492 158.314 162.038 157.738 162.429 157.06C162.82 156.383 163.046 155.622 163.087 154.84V50.284C163.087 48.8488 162.084 48.2664 160.836 48.984Z" fill="#455A64"/>
<path d="M116.761 74.4328L160.836 48.984C161.949 48.3392 162.869 48.7396 163.056 49.8576C162.952 49.1547 162.701 48.4817 162.318 47.8831C161.935 47.2844 161.43 46.7735 160.836 46.384L159.006 45.344C158.308 44.99 157.536 44.8055 156.754 44.8055C155.972 44.8055 155.2 44.99 154.502 45.344L110.422 70.772C109.758 71.1883 109.211 71.7662 108.831 72.4516L115.17 76.0916C115.549 75.4116 116.097 74.8404 116.761 74.4328V74.4328Z" fill="#37474F"/>
<path d="M108.16 179.228C108.203 180.01 108.429 180.77 108.82 181.447C109.211 182.125 109.756 182.701 110.412 183.128L112.247 184.168C112.882 184.486 113.578 184.666 114.287 184.697C114.997 184.727 115.705 184.607 116.366 184.345C115.326 184.751 114.499 184.153 114.499 182.868V78.3328C114.525 77.5483 114.752 76.7836 115.159 76.1124L108.82 72.4724C108.419 73.1385 108.192 73.895 108.16 74.672V179.228Z" fill="#263238"/>
<path d="M117.972 88.3636L159.64 64.3136C160.389 63.8872 160.992 64.2356 160.992 65.0936V142.48C160.967 142.949 160.831 143.405 160.597 143.812C160.362 144.219 160.034 144.564 159.64 144.82L117.988 168.87C117.239 169.302 116.636 168.953 116.636 168.09V90.7036C116.66 90.2361 116.793 89.7807 117.025 89.3742C117.257 88.9677 117.582 88.6215 117.972 88.3636V88.3636Z" fill="white"/>
<path d="M138.798 65.6708C138.568 65.8218 138.377 66.0247 138.24 66.2631C138.102 66.5016 138.023 66.7689 138.008 67.0436C138.008 67.5636 138.361 67.756 138.798 67.5012C139.029 67.3511 139.221 67.1485 139.358 66.9098C139.496 66.6712 139.575 66.4034 139.589 66.1284C139.589 65.624 139.235 65.4212 138.798 65.6708Z" fill="#37474F"/>
<path d="M138.798 160.545C137.889 161.139 137.133 161.94 136.591 162.881C136.049 163.823 135.736 164.878 135.678 165.963C135.678 167.955 137.077 168.766 138.798 167.768C139.707 167.173 140.463 166.372 141.005 165.431C141.547 164.489 141.86 163.434 141.918 162.349C141.929 160.358 140.525 159.546 138.798 160.545Z" fill="#37474F"/>
<path d="M131.316 73.7204C130.859 74.0238 130.479 74.4303 130.208 74.9072C129.937 75.3842 129.782 75.9181 129.756 76.466C129.756 77.4748 130.463 77.8856 131.316 77.3812C131.777 77.0807 132.162 76.6754 132.437 76.1983C132.713 75.7212 132.872 75.1858 132.902 74.6356C132.902 73.6268 132.194 73.216 131.316 73.7204Z" fill="#37474F"/>
<path d="M135.2 73.3772C135.2 74.0532 135.72 74.308 136.328 73.9492L146.728 67.9328C147.051 67.7316 147.321 67.4572 147.517 67.1319C147.713 66.8066 147.829 66.4396 147.857 66.0608C147.857 65.39 147.337 65.1352 146.728 65.494L136.328 71.5104C136.007 71.7111 135.737 71.9847 135.541 72.309C135.345 72.6333 135.228 72.9993 135.2 73.3772V73.3772Z" fill="#37474F"/>
<path d="M111.675 91.7124C112.044 91.9528 112.351 92.2767 112.572 92.658C112.792 93.0392 112.92 93.4671 112.944 93.9068C112.944 94.718 112.377 95.0456 111.675 94.64C111.307 94.3987 111.002 94.0745 110.782 93.6933C110.563 93.3122 110.436 92.8848 110.412 92.4456C110.412 91.6396 110.978 91.312 111.675 91.7124Z" fill="#37474F"/>
<path d="M111.675 101.478C112.044 101.718 112.351 102.042 112.572 102.424C112.792 102.805 112.92 103.233 112.944 103.672C112.944 104.478 112.377 104.806 111.675 104.406C111.307 104.164 111.002 103.84 110.782 103.459C110.563 103.078 110.436 102.65 110.412 102.211C110.412 101.4 110.978 101.072 111.675 101.478Z" fill="#37474F"/>
<path d="M111.28 91.91C111.649 92.1504 111.956 92.4743 112.177 92.8556C112.397 93.2368 112.525 93.6647 112.549 94.1044C112.549 94.9104 111.982 95.238 111.28 94.8376C110.911 94.5972 110.604 94.2733 110.383 93.892C110.163 93.5108 110.035 93.0829 110.011 92.6432C110.016 91.832 110.583 91.52 111.28 91.91Z" fill="#455A64"/>
<path d="M111.28 101.67C111.65 101.911 111.957 102.236 112.178 102.618C112.398 103 112.525 103.429 112.549 103.87C112.549 104.676 111.982 105.004 111.28 104.598C110.91 104.359 110.602 104.035 110.382 103.653C110.161 103.272 110.034 102.844 110.011 102.404C110.016 101.598 110.583 101.27 111.28 101.67Z" fill="#455A64"/>
<path d="M169.426 67.5428C169.426 66.6796 168.823 66.3312 168.074 66.7628L163.088 69.6384L126.422 90.8128C126.028 91.0687 125.701 91.414 125.466 91.8207C125.231 92.2274 125.095 92.6838 125.07 93.1528V170.518C125.07 171.382 125.674 171.73 126.422 171.298L163.103 150.119L168.074 147.248C168.468 146.993 168.796 146.647 169.031 146.24C169.266 145.834 169.401 145.377 169.426 144.908V67.5428Z" fill="white"/>
<path d="M169.946 67.5428C169.979 67.282 169.934 67.0174 169.817 66.782C169.7 66.5466 169.517 66.3509 169.289 66.2194C169.062 66.0878 168.8 66.0263 168.538 66.0425C168.276 66.0587 168.024 66.1519 167.814 66.3104L163.056 69.0612L126.162 90.3812C125.687 90.681 125.292 91.0919 125.012 91.5784C124.731 92.0648 124.572 92.6123 124.55 93.1736V170.518C124.529 170.778 124.579 171.038 124.695 171.272C124.81 171.505 124.987 171.703 125.205 171.844C125.392 171.953 125.604 172.008 125.819 172.006C126.124 171.996 126.421 171.908 126.682 171.751L163.602 150.431L168.35 147.69C168.822 147.388 169.215 146.976 169.495 146.49C169.776 146.004 169.936 145.458 169.962 144.898L169.946 67.5428ZM163.067 149.542L162.64 149.791L126.183 170.841C126.122 170.888 126.051 170.921 125.975 170.937C125.9 170.953 125.821 170.952 125.746 170.934C125.679 170.893 125.611 170.747 125.611 170.508V93.1528C125.638 92.7752 125.75 92.4087 125.939 92.0808C126.129 91.753 126.39 91.4723 126.703 91.26L163.124 70.2L168.324 67.1892C168.385 67.1421 168.456 67.1093 168.532 67.0931C168.607 67.0769 168.686 67.0778 168.761 67.0956C168.828 67.1372 168.896 67.2828 168.896 67.522V144.908C168.869 145.286 168.757 145.652 168.568 145.98C168.378 146.308 168.117 146.589 167.804 146.801L163.056 149.542H163.067Z" fill="#5D94E7"/>
<path d="M147.248 85.5192C151.928 82.8256 155.698 84.9992 155.698 90.402C155.698 95.8048 151.913 102.362 147.248 105.035C142.584 107.708 138.798 105.555 138.798 100.157C138.798 94.7596 142.584 88.218 147.248 85.5192Z" fill="#5D94E7"/>
<path d="M147.248 89.7624C148.761 88.8888 149.989 89.596 149.989 91.3224C149.937 92.2734 149.662 93.199 149.186 94.0239C148.71 94.8488 148.046 95.5498 147.248 96.07C145.735 96.9436 144.508 96.2364 144.508 94.51C144.559 93.5589 144.834 92.6334 145.31 91.8085C145.786 90.9836 146.45 90.2826 147.248 89.7624V89.7624Z" fill="#5D94E7"/>
<path d="M152.589 99.0808C152.589 96.2104 150.576 95.0456 148.085 96.4808L146.525 97.3804C144.04 98.8156 142.022 102.31 142.022 105.18V105.955C143.463 106.428 145.272 106.174 147.222 105.035C149.382 103.702 151.209 101.893 152.563 99.7464L152.589 99.0808Z" fill="#5D94E7"/>
<path opacity="0.7" d="M147.248 89.7624C148.761 88.8888 149.989 89.596 149.989 91.3224C149.937 92.2734 149.662 93.199 149.186 94.0239C148.71 94.8488 148.046 95.5498 147.248 96.07C145.735 96.9436 144.508 96.2364 144.508 94.51C144.559 93.5589 144.834 92.6334 145.31 91.8085C145.786 90.9836 146.45 90.2826 147.248 89.7624V89.7624Z" fill="white"/>
<path opacity="0.7" d="M152.589 99.0808C152.589 96.2104 150.576 95.0456 148.085 96.4808L146.525 97.3804C144.04 98.8156 142.022 102.31 142.022 105.18V105.955C143.463 106.428 145.272 106.174 147.222 105.035C149.382 103.702 151.209 101.893 152.563 99.7464L152.589 99.0808Z" fill="white"/>
<path d="M130.9 116.917L141.773 110.64C142.293 110.354 142.672 110.583 142.672 111.16V111.519C142.656 111.832 142.566 112.136 142.41 112.407C142.253 112.678 142.035 112.908 141.773 113.079L130.9 119.356C130.406 119.642 130 119.408 130 118.836V118.477C130.017 118.164 130.107 117.86 130.263 117.589C130.42 117.318 130.638 117.088 130.9 116.917V116.917Z" fill="#5D94E7"/>
<path opacity="0.1" d="M130.9 116.917L141.773 110.64C142.293 110.354 142.672 110.583 142.672 111.16V111.519C142.656 111.832 142.566 112.136 142.41 112.407C142.253 112.678 142.035 112.908 141.773 113.079L130.9 119.356C130.406 119.642 130 119.408 130 118.836V118.477C130.017 118.164 130.107 117.86 130.263 117.589C130.42 117.318 130.638 117.088 130.9 116.917V116.917Z" fill="black"/>
<path d="M130.452 124.493L163.348 105.503C163.592 105.357 163.795 105.472 163.795 105.763V109.6C163.786 109.756 163.741 109.908 163.663 110.043C163.585 110.178 163.477 110.294 163.348 110.38L130.452 129.371C130.203 129.516 130 129.397 130 129.111V125.273C130.009 125.117 130.055 124.965 130.133 124.829C130.212 124.694 130.321 124.579 130.452 124.493V124.493Z" fill="#5D94E7"/>
<path opacity="0.2" d="M130.452 124.493L163.348 105.503C163.592 105.357 163.795 105.472 163.795 105.763V109.6C163.786 109.756 163.741 109.908 163.663 110.043C163.585 110.178 163.477 110.294 163.348 110.38L130.452 129.371C130.203 129.516 130 129.397 130 129.111V125.273C130.009 125.117 130.055 124.965 130.133 124.829C130.212 124.694 130.321 124.579 130.452 124.493V124.493Z" fill="white"/>
<path d="M130.9 133.988L141.773 127.712C142.293 127.426 142.672 127.66 142.672 128.232V128.591C142.656 128.903 142.566 129.208 142.41 129.479C142.254 129.75 142.035 129.98 141.773 130.151L130.9 136.427C130.406 136.718 130 136.484 130 135.907V135.548C130.018 135.236 130.108 134.932 130.264 134.662C130.421 134.391 130.638 134.16 130.9 133.988V133.988Z" fill="#5D94E7"/>
<path opacity="0.1" d="M130.9 133.988L141.773 127.712C142.293 127.426 142.672 127.66 142.672 128.232V128.591C142.656 128.903 142.566 129.208 142.41 129.479C142.254 129.75 142.035 129.98 141.773 130.151L130.9 136.427C130.406 136.718 130 136.484 130 135.907V135.548C130.018 135.236 130.108 134.932 130.264 134.662C130.421 134.391 130.638 134.16 130.9 133.988V133.988Z" fill="black"/>
<path d="M130.452 141.565L163.348 122.574C163.592 122.429 163.795 122.548 163.795 122.834V126.672C163.786 126.828 163.741 126.979 163.663 127.115C163.585 127.25 163.477 127.365 163.348 127.452L130.452 146.442C130.203 146.588 130 146.474 130 146.182V142.345C130.009 142.188 130.055 142.036 130.133 141.901C130.212 141.765 130.321 141.65 130.452 141.565V141.565Z" fill="#5D94E7"/>
<path opacity="0.2" d="M130.452 141.565L163.348 122.574C163.592 122.429 163.795 122.548 163.795 122.834V126.672C163.786 126.828 163.741 126.979 163.663 127.115C163.585 127.25 163.477 127.365 163.348 127.452L130.452 146.442C130.203 146.588 130 146.474 130 146.182V142.345C130.009 142.188 130.055 142.036 130.133 141.901C130.212 141.765 130.321 141.65 130.452 141.565V141.565Z" fill="white"/>
<path d="M143.572 143.744L156.572 136.25C157.092 135.959 157.477 136.193 157.477 136.77V140.785C157.46 141.098 157.369 141.402 157.212 141.673C157.054 141.945 156.835 142.175 156.572 142.345L143.572 149.843C143.052 150.129 142.672 149.895 142.672 149.323V145.304C142.69 144.991 142.781 144.688 142.937 144.417C143.094 144.146 143.311 143.916 143.572 143.744Z" fill="#5D94E7"/>
<path opacity="0.1" d="M143.572 143.744L156.572 136.25C157.092 135.959 157.477 136.193 157.477 136.77V140.785C157.46 141.098 157.369 141.402 157.212 141.673C157.054 141.945 156.835 142.175 156.572 142.345L143.572 149.843C143.052 150.129 142.672 149.895 142.672 149.323V145.304C142.69 144.991 142.781 144.688 142.937 144.417C143.094 144.146 143.311 143.916 143.572 143.744Z" fill="black"/>
<path d="M174.356 126.802C174.356 126.802 167.97 117.993 167.596 116.922C167.3 116.132 167.596 114.956 167.69 114.41C167.783 113.864 167.866 112.648 167.96 112.33C168.116 111.738 167.352 111.857 166.92 112.398C166.488 112.939 166.343 114.02 166.119 114.197C165.896 114.374 164.195 111.894 163.306 110.75C162.417 109.606 161.86 108.909 161.314 109.335C160.924 109.642 161.216 110.308 161.86 111.285C162.237 111.812 162.584 112.358 162.9 112.923C162.999 113.136 162.469 113.152 162.183 113.594C161.959 113.937 162.183 114.494 161.871 114.759C161.679 114.905 161.547 115.117 161.501 115.353C161.455 115.59 161.498 115.836 161.621 116.043C162.2 116.952 162.947 117.743 163.821 118.373C164.778 119.033 165.162 119.267 165.729 120.167C166.296 121.066 171.382 130.255 171.725 130.806C172.068 131.357 172.729 132.48 173.732 132.512C174.736 132.543 182.952 125.471 183.373 125.117C184.725 123.989 185.157 123.828 185.385 124.842C185.464 125.202 185.523 125.567 185.562 125.934C185.723 127.223 186.602 131.83 186.602 131.83C186.602 131.83 190.762 133.843 194.179 132.87C197.595 131.898 198.749 130.447 198.749 130.447L197.039 127.66C197.501 126.511 199.639 121.852 200.33 118.591L189.618 116.86C189.4 116.813 189.046 116.724 188.578 116.605C187.99 116.449 186.498 115.934 185.37 116.922C181.688 120.13 174.367 126.802 174.367 126.802" fill="#FFA8A7"/>
<path d="M195.593 180.851L193.674 183.518C194.546 183.926 195.499 184.13 196.461 184.116C198.182 184.179 198.656 183.596 198.718 183.482C199.009 182.858 198.557 181.735 198.432 180.768L195.593 180.851Z" fill="#37474F"/>
<path d="M193.783 182.239C193.783 182.239 191.454 182.088 189.847 181.891C188.24 181.693 186.966 182.473 187.341 183.134C187.715 183.794 188.604 184.345 189.987 184.808C191.168 185.208 192.587 185.494 193.815 185.848C195.042 186.202 195.895 186.664 196.607 186.415C197.403 186.139 197.746 185.822 197.678 185.24C197.504 184.411 197.289 183.592 197.033 182.785L193.783 182.239Z" fill="#37474F"/>
<path d="M198.718 178.173C198.718 178.173 198.427 180.596 198.406 181.116C198.385 181.636 196.04 181.802 195.593 180.851L195.52 177.887L198.718 178.173Z" fill="#F28F8F"/>
<path d="M196.357 179.66L197.195 183.342C197.195 183.342 197.273 183.789 195.359 184.075C193.445 184.361 190.44 183.071 189.925 182.811C189.41 182.551 189.353 182.026 191.235 182.13C193.118 182.234 193.783 182.239 193.783 182.239L193.17 180.612L196.357 179.66Z" fill="#FFA8A7"/>
<path d="M200.299 118.56L201.625 118.191C201.625 118.191 204.396 126.963 204.703 127.811C205.01 128.658 205.358 129.553 204.76 130.598C204.048 131.841 200.299 136.838 200.299 136.838L197.917 134.508L200.621 129.558L198.229 124.722L200.299 118.56Z" fill="#F28F8F"/>
<path d="M186.68 107.167C186.369 106.583 186.211 105.93 186.221 105.269C186.231 104.608 186.409 103.96 186.737 103.386C188.058 100.937 191.001 99.7464 194.506 100.199C196.128 100.412 198.042 101.759 199.087 103.771C200.242 106.002 200.351 110.495 200.647 112.195L186.68 107.167Z" fill="#37474F"/>
<path d="M186.587 108.129C186.587 108.129 185.755 109.715 185.9 109.86C186.116 109.986 186.352 110.074 186.597 110.12L186.587 108.129Z" fill="#FFA8A7"/>
<path d="M189.114 103.116C188.209 103.704 186.649 104.785 186.581 108.347C186.509 111.987 187.029 113.188 187.569 113.61C187.933 113.896 190.071 113.75 190.986 113.537C191.901 113.324 194.537 112.018 195.489 110.037C196.607 107.708 196.378 104.317 194.719 103.277C193.875 102.778 192.918 102.501 191.937 102.473C190.957 102.445 189.985 102.666 189.114 103.116V103.116Z" fill="#FFA8A7"/>
<path d="M198.718 130.426C200.32 132.922 201.838 135.106 202.171 137.925C202.857 143.848 200.611 150.618 200.127 155.002C201.037 156.248 201.561 157.734 201.635 159.276C201.635 161.091 198.718 178.173 198.718 178.173C198.718 178.173 196.596 178.818 195.52 177.887L193.518 146.463L194.558 142.636L198.718 130.426Z" fill="#5D94E7"/>
<path d="M198.718 130.426C200.32 132.922 201.838 135.106 202.171 137.925C202.857 143.848 200.611 150.618 200.127 155.002C201.037 156.248 201.561 157.734 201.635 159.276C201.635 161.091 198.718 178.173 198.718 178.173C198.718 178.173 196.596 178.818 195.52 177.887L193.518 146.463L194.558 142.636L198.718 130.426Z" fill="#263238"/>
<path d="M193.518 146.463L194.558 142.636C196.549 142.112 198.47 141.349 200.278 140.364C200.278 140.364 199.196 142.334 196.087 143.416L194.48 148.33L194.345 159.588L193.518 146.463Z" fill="#5D94E7"/>
<path d="M193.518 146.463L194.558 142.636C196.549 142.112 198.47 141.349 200.278 140.364C200.278 140.364 199.196 142.334 196.087 143.416L194.48 148.33L194.345 159.588L193.518 146.463Z" fill="black"/>
<path d="M198.718 130.426C199.576 131.83 201.625 134.222 201.188 136.526C200.668 139.313 199.16 141.274 194.574 142.636L190.268 158.236C190.268 158.236 192.509 160.316 193.196 162.328C193.882 164.341 196.357 179.67 196.357 179.67C196.357 179.67 195.588 180.924 193.17 180.622C193.17 180.622 184.74 161.382 184.148 160.129C183.428 158.86 183.176 157.379 183.435 155.943C183.7 153.925 186.555 131.841 186.555 131.841L198.718 130.426Z" fill="#5D94E7"/>
<path d="M198.718 130.426C199.576 131.83 201.625 134.222 201.188 136.526C200.668 139.313 199.16 141.274 194.574 142.636L190.268 158.236C190.268 158.236 192.509 160.316 193.196 162.328C193.882 164.341 196.357 179.67 196.357 179.67C196.357 179.67 195.588 180.924 193.17 180.622C193.17 180.622 184.74 161.382 184.148 160.129C183.428 158.86 183.176 157.379 183.435 155.943C183.7 153.925 186.555 131.841 186.555 131.841L198.718 130.426Z" fill="#263238"/>
<path d="M200.299 118.56L189.587 116.828C189.368 116.782 189.015 116.693 188.547 116.574C188.547 116.574 188.089 123.292 185.338 124.831C185.406 125.154 185.463 125.512 185.515 125.923C185.676 127.213 186.555 131.82 186.555 131.82C186.555 131.82 190.715 133.832 194.132 132.86C197.548 131.888 198.702 130.437 198.702 130.437L196.992 127.65C197.47 126.49 199.623 121.831 200.299 118.56Z" fill="#5D94E7"/>
<path opacity="0.7" d="M200.299 118.56L189.587 116.828C189.368 116.782 189.015 116.693 188.547 116.574C188.547 116.574 188.089 123.292 185.338 124.831C185.406 125.154 185.463 125.512 185.515 125.923C185.676 127.213 186.555 131.82 186.555 131.82C186.555 131.82 190.715 133.832 194.132 132.86C197.548 131.888 198.702 130.437 198.702 130.437L196.992 127.65C197.47 126.49 199.623 121.831 200.299 118.56Z" fill="white"/>
<path d="M197.475 126.542C196.053 127.396 194.562 128.132 193.019 128.742C194.42 128.714 195.791 128.335 197.007 127.639L197.475 126.542Z" fill="#5D94E7"/>
<path d="M188.848 103.293C188.848 103.293 188.328 106.673 189.556 108.659C189.556 108.659 190.013 107.312 191.152 107.567C192.291 107.822 192.353 109.325 191.552 110.167C191.349 110.403 191.083 110.578 190.785 110.67C190.487 110.762 190.169 110.768 189.868 110.687C189.868 110.687 189.686 113.131 189.587 115.18C189.488 117.229 188.947 121.696 191.251 123.5C193.554 125.304 199.337 125.939 202.046 122.153C203.554 120.047 201.552 116.324 200.621 112.148C199.763 108.311 199.28 102.622 195.208 101.707C191.136 100.792 188.848 103.293 188.848 103.293Z" fill="#37474F"/>
<path d="M203.788 57.1116L202.93 57.6316C203.002 57.3263 203.042 57.0144 203.05 56.7008C203.05 54.9588 201.828 54.2568 200.32 55.1408C199.861 55.4176 199.451 55.7691 199.108 56.1808V56.1808C199.108 53.8408 197.465 52.8892 195.437 54.0592C194.368 54.7562 193.479 55.6952 192.841 56.8001C192.203 57.9051 191.835 59.1448 191.766 60.4188C191.766 60.5384 191.766 60.6528 191.766 60.7672C191.243 60.7015 190.714 60.8231 190.273 61.1104C189.479 61.6282 188.817 62.3261 188.343 63.1473C187.869 63.9686 187.595 64.8902 187.543 65.8372C187.543 66.0574 187.566 66.277 187.611 66.4924L187.153 66.7576C185.91 67.4752 184.902 68.874 184.902 69.8776C184.902 70.8812 185.91 71.1204 187.153 70.3976L203.793 60.8036C205.036 60.086 206.045 58.6872 206.045 57.6836C206.045 56.68 205.031 56.3888 203.788 57.1116Z" fill="#EBEBEB"/>
</svg>
