<?xml version="1.0" standalone="no"?>
<svg xmlns:xlink="http://www.w3.org/1999/xlink" id="wave" style="transform:rotate(0deg); transition: 0.3s" viewBox="0 0 1440 160" version="1.1" xmlns="http://www.w3.org/2000/svg"><defs><linearGradient id="sw-gradient-0" x1="0" x2="0" y1="1" y2="0"><stop stop-color="rgba(55, 71, 79, 1)" offset="0%"/><stop stop-color="rgba(55, 71, 79, 1)" offset="100%"/></linearGradient></defs><path style="transform:translate(0, 0px); opacity:1" fill="url(#sw-gradient-0)" d="M0,128L30,114.7C60,101,120,75,180,56C240,37,300,27,360,26.7C420,27,480,37,540,40C600,43,660,37,720,53.3C780,69,840,107,900,101.3C960,96,1020,48,1080,45.3C1140,43,1200,85,1260,90.7C1320,96,1380,64,1440,61.3C1500,59,1560,85,1620,98.7C1680,112,1740,112,1800,109.3C1860,107,1920,101,1980,104C2040,107,2100,117,2160,101.3C2220,85,2280,43,2340,29.3C2400,16,2460,32,2520,48C2580,64,2640,80,2700,93.3C2760,107,2820,117,2880,122.7C2940,128,3000,128,3060,112C3120,96,3180,64,3240,58.7C3300,53,3360,75,3420,69.3C3480,64,3540,32,3600,16C3660,0,3720,0,3780,5.3C3840,11,3900,21,3960,40C4020,59,4080,85,4140,101.3C4200,117,4260,123,4290,125.3L4320,128L4320,160L4290,160C4260,160,4200,160,4140,160C4080,160,4020,160,3960,160C3900,160,3840,160,3780,160C3720,160,3660,160,3600,160C3540,160,3480,160,3420,160C3360,160,3300,160,3240,160C3180,160,3120,160,3060,160C3000,160,2940,160,2880,160C2820,160,2760,160,2700,160C2640,160,2580,160,2520,160C2460,160,2400,160,2340,160C2280,160,2220,160,2160,160C2100,160,2040,160,1980,160C1920,160,1860,160,1800,160C1740,160,1680,160,1620,160C1560,160,1500,160,1440,160C1380,160,1320,160,1260,160C1200,160,1140,160,1080,160C1020,160,960,160,900,160C840,160,780,160,720,160C660,160,600,160,540,160C480,160,420,160,360,160C300,160,240,160,180,160C120,160,60,160,30,160L0,160Z"/></svg>