<svg id="wave" style="transform:rotate(0deg); transition: 0.3s" viewBox="0 0 1440 330" version="1.1" xmlns="http://www.w3.org/2000/svg"><defs><linearGradient id="sw-gradient-0" x1="0" x2="0" y1="1" y2="0"><stop stop-color="rgba(226, 82, 71, 1)" offset="0%"></stop><stop stop-color="rgba(226, 82, 71, 1)" offset="100%"></stop></linearGradient></defs><path style="transform:translate(0, 0px); opacity:1" fill="url(#sw-gradient-0)" d="M0,132L80,159.5C160,187,320,242,480,236.5C640,231,800,165,960,121C1120,77,1280,55,1440,60.5C1600,66,1760,99,1920,137.5C2080,176,2240,220,2400,220C2560,220,2720,176,2880,176C3040,176,3200,220,3360,236.5C3520,253,3680,242,3840,242C4000,242,4160,253,4320,214.5C4480,176,4640,88,4800,49.5C4960,11,5120,22,5280,71.5C5440,121,5600,209,5760,242C5920,275,6080,253,6240,214.5C6400,176,6560,121,6720,82.5C6880,44,7040,22,7200,38.5C7360,55,7520,110,7680,126.5C7840,143,8000,121,8160,99C8320,77,8480,55,8640,77C8800,99,8960,165,9120,176C9280,187,9440,143,9600,115.5C9760,88,9920,77,10080,99C10240,121,10400,176,10560,165C10720,154,10880,77,11040,82.5C11200,88,11360,176,11440,220L11520,264L11520,330L11440,330C11360,330,11200,330,11040,330C10880,330,10720,330,10560,330C10400,330,10240,330,10080,330C9920,330,9760,330,9600,330C9440,330,9280,330,9120,330C8960,330,8800,330,8640,330C8480,330,8320,330,8160,330C8000,330,7840,330,7680,330C7520,330,7360,330,7200,330C7040,330,6880,330,6720,330C6560,330,6400,330,6240,330C6080,330,5920,330,5760,330C5600,330,5440,330,5280,330C5120,330,4960,330,4800,330C4640,330,4480,330,4320,330C4160,330,4000,330,3840,330C3680,330,3520,330,3360,330C3200,330,3040,330,2880,330C2720,330,2560,330,2400,330C2240,330,2080,330,1920,330C1760,330,1600,330,1440,330C1280,330,1120,330,960,330C800,330,640,330,480,330C320,330,160,330,80,330L0,330Z"></path></svg>