<svg id="wave" style="transform:rotate(0deg); transition: 0.3s" viewBox="0 0 1440 330" version="1.1" xmlns="http://www.w3.org/2000/svg"><defs><linearGradient id="sw-gradient-0" x1="0" x2="0" y1="1" y2="0"><stop stop-color="rgba(55, 71, 79, 1)" offset="0%"></stop><stop stop-color="rgba(55, 71, 79, 1)" offset="100%"></stop></linearGradient></defs><path style="transform:translate(0, 0px); opacity:1" fill="url(#sw-gradient-0)" d="M0,132L80,143C160,154,320,176,480,187C640,198,800,198,960,187C1120,176,1280,154,1440,137.5C1600,121,1760,110,1920,104.5C2080,99,2240,99,2400,121C2560,143,2720,187,2880,209C3040,231,3200,231,3360,214.5C3520,198,3680,165,3840,132C4000,99,4160,66,4320,82.5C4480,99,4640,165,4800,181.5C4960,198,5120,165,5280,176C5440,187,5600,242,5760,269.5C5920,297,6080,297,6240,269.5C6400,242,6560,187,6720,165C6880,143,7040,154,7200,132C7360,110,7520,55,7680,27.5C7840,0,8000,0,8160,44C8320,88,8480,176,8640,220C8800,264,8960,264,9120,253C9280,242,9440,220,9600,225.5C9760,231,9920,264,10080,258.5C10240,253,10400,209,10560,209C10720,209,10880,253,11040,242C11200,231,11360,165,11440,132L11520,99L11520,330L11440,330C11360,330,11200,330,11040,330C10880,330,10720,330,10560,330C10400,330,10240,330,10080,330C9920,330,9760,330,9600,330C9440,330,9280,330,9120,330C8960,330,8800,330,8640,330C8480,330,8320,330,8160,330C8000,330,7840,330,7680,330C7520,330,7360,330,7200,330C7040,330,6880,330,6720,330C6560,330,6400,330,6240,330C6080,330,5920,330,5760,330C5600,330,5440,330,5280,330C5120,330,4960,330,4800,330C4640,330,4480,330,4320,330C4160,330,4000,330,3840,330C3680,330,3520,330,3360,330C3200,330,3040,330,2880,330C2720,330,2560,330,2400,330C2240,330,2080,330,1920,330C1760,330,1600,330,1440,330C1280,330,1120,330,960,330C800,330,640,330,480,330C320,330,160,330,80,330L0,330Z"></path></svg>