<?xml version="1.0" standalone="no"?>
<svg xmlns:xlink="http://www.w3.org/1999/xlink" id="wave" style="transform:rotate(0deg); transition: 0.3s" viewBox="0 0 1440 160" version="1.1" xmlns="http://www.w3.org/2000/svg"><defs><linearGradient id="sw-gradient-0" x1="0" x2="0" y1="1" y2="0"><stop stop-color="rgba(226, 82, 71, 1)" offset="0%"/><stop stop-color="rgba(226, 82, 71, 1)" offset="100%"/></linearGradient></defs><path style="transform:translate(0, 0px); opacity:1" fill="url(#sw-gradient-0)" d="M0,128L34.3,114.7C68.6,101,137,75,206,56C274.3,37,343,27,411,26.7C480,27,549,37,617,40C685.7,43,754,37,823,53.3C891.4,69,960,107,1029,101.3C1097.1,96,1166,48,1234,45.3C1302.9,43,1371,85,1440,90.7C1508.6,96,1577,64,1646,61.3C1714.3,59,1783,85,1851,98.7C1920,112,1989,112,2057,109.3C2125.7,107,2194,101,2263,104C2331.4,107,2400,117,2469,101.3C2537.1,85,2606,43,2674,29.3C2742.9,16,2811,32,2880,48C2948.6,64,3017,80,3086,93.3C3154.3,107,3223,117,3291,122.7C3360,128,3429,128,3497,112C3565.7,96,3634,64,3703,58.7C3771.4,53,3840,75,3909,69.3C3977.1,64,4046,32,4114,16C4182.9,0,4251,0,4320,5.3C4388.6,11,4457,21,4526,40C4594.3,59,4663,85,4731,101.3C4800,117,4869,123,4903,125.3L4937.1,128L4937.1,160L4902.9,160C4868.6,160,4800,160,4731,160C4662.9,160,4594,160,4526,160C4457.1,160,4389,160,4320,160C4251.4,160,4183,160,4114,160C4045.7,160,3977,160,3909,160C3840,160,3771,160,3703,160C3634.3,160,3566,160,3497,160C3428.6,160,3360,160,3291,160C3222.9,160,3154,160,3086,160C3017.1,160,2949,160,2880,160C2811.4,160,2743,160,2674,160C2605.7,160,2537,160,2469,160C2400,160,2331,160,2263,160C2194.3,160,2126,160,2057,160C1988.6,160,1920,160,1851,160C1782.9,160,1714,160,1646,160C1577.1,160,1509,160,1440,160C1371.4,160,1303,160,1234,160C1165.7,160,1097,160,1029,160C960,160,891,160,823,160C754.3,160,686,160,617,160C548.6,160,480,160,411,160C342.9,160,274,160,206,160C137.1,160,69,160,34,160L0,160Z"/></svg>