<svg id="wave" style="transform:rotate(0deg); transition: 0.3s" viewBox="0 0 1440 100" version="1.1" xmlns="http://www.w3.org/2000/svg"><defs><linearGradient id="sw-gradient-0" x1="0" x2="0" y1="1" y2="0"><stop stop-color="rgba(55, 71, 79, 1)" offset="0%"></stop><stop stop-color="rgba(55, 71, 79, 1)" offset="100%"></stop></linearGradient></defs><path style="transform:translate(0, 0px); opacity:1" fill="url(#sw-gradient-0)" d="M0,40L80,43.3C160,47,320,53,480,56.7C640,60,800,60,960,56.7C1120,53,1280,47,1440,41.7C1600,37,1760,33,1920,31.7C2080,30,2240,30,2400,36.7C2560,43,2720,57,2880,63.3C3040,70,3200,70,3360,65C3520,60,3680,50,3840,40C4000,30,4160,20,4320,25C4480,30,4640,50,4800,55C4960,60,5120,50,5280,53.3C5440,57,5600,73,5760,81.7C5920,90,6080,90,6240,81.7C6400,73,6560,57,6720,50C6880,43,7040,47,7200,40C7360,33,7520,17,7680,8.3C7840,0,8000,0,8160,13.3C8320,27,8480,53,8640,66.7C8800,80,8960,80,9120,76.7C9280,73,9440,67,9600,68.3C9760,70,9920,80,10080,78.3C10240,77,10400,63,10560,63.3C10720,63,10880,77,11040,73.3C11200,70,11360,50,11440,40L11520,30L11520,100L11440,100C11360,100,11200,100,11040,100C10880,100,10720,100,10560,100C10400,100,10240,100,10080,100C9920,100,9760,100,9600,100C9440,100,9280,100,9120,100C8960,100,8800,100,8640,100C8480,100,8320,100,8160,100C8000,100,7840,100,7680,100C7520,100,7360,100,7200,100C7040,100,6880,100,6720,100C6560,100,6400,100,6240,100C6080,100,5920,100,5760,100C5600,100,5440,100,5280,100C5120,100,4960,100,4800,100C4640,100,4480,100,4320,100C4160,100,4000,100,3840,100C3680,100,3520,100,3360,100C3200,100,3040,100,2880,100C2720,100,2560,100,2400,100C2240,100,2080,100,1920,100C1760,100,1600,100,1440,100C1280,100,1120,100,960,100C800,100,640,100,480,100C320,100,160,100,80,100L0,100Z"></path></svg>